<?xml version="1.0" encoding="utf-8" standalone="no"?>
<!DOCTYPE svg PUBLIC "-//W3C//DTD SVG 1.1//EN"
  "http://www.w3.org/Graphics/SVG/1.1/DTD/svg11.dtd">
<svg height="360pt" version="1.1" viewBox="0 0 360 360" width="360pt" xmlns="http://www.w3.org/2000/svg" xmlns:xlink="http://www.w3.org/1999/xlink">
 <metadata>
  <rdf:RDF xmlns:cc="http://creativecommons.org/ns#" xmlns:dc="http://purl.org/dc/elements/1.1/" xmlns:rdf="http://www.w3.org/1999/02/22-rdf-syntax-ns#">
   <cc:Work>
    <dc:type rdf:resource="http://purl.org/dc/dcmitype/StillImage"/>
    <dc:date>2021-11-10T10:30:29.322605</dc:date>
    <dc:format>image/svg+xml</dc:format>
    <dc:creator>
     <cc:Agent>
      <dc:title>Matplotlib v3.4.3, https://matplotlib.org/</dc:title>
     </cc:Agent>
    </dc:creator>
   </cc:Work>
  </rdf:RDF>
 </metadata>
 <defs>
  <style type="text/css">*{stroke-linecap:butt;stroke-linejoin:round;}</style>
 </defs>
 <g id="figure_1">
  <g id="patch_1">
   <path d="M 0 360 
L 360 360 
L 360 0 
L 0 0 
z
" style="fill:#ffffff;"/>
  </g>
  <g id="axes_1">
   <g id="patch_2">
    <path d="M 41.923677 94.261982 
L 317.234135 94.261982 
L 317.234135 37.66672 
L 41.923677 37.66672 
z
" style="fill:#ffffff;"/>
   </g>
   <g id="patch_3">
    <path clip-path="url(#pcc3461f5fd)" d="M 82.830384 44.741128 
L 82.830384 58.889943 
L 128.979553 58.889943 
L 128.979553 44.741128 
L 82.830384 44.741128 
z
" style="fill:#3274a1;stroke:#3f3f3f;stroke-linejoin:miter;stroke-width:1.5;"/>
   </g>
   <g id="patch_4">
    <path clip-path="url(#pcc3461f5fd)" d="M 90.144422 73.038759 
L 90.144422 87.187574 
L 163.285484 87.187574 
L 163.285484 73.038759 
L 90.144422 73.038759 
z
" style="fill:#e1812c;stroke:#3f3f3f;stroke-linejoin:miter;stroke-width:1.5;"/>
   </g>
   <g id="matplotlib.axis_1">
    <g id="xtick_1"/>
    <g id="xtick_2"/>
    <g id="xtick_3"/>
    <g id="xtick_4"/>
    <g id="xtick_5"/>
    <g id="xtick_6"/>
    <g id="xtick_7"/>
    <g id="xtick_8"/>
    <g id="xtick_9"/>
    <g id="xtick_10"/>
   </g>
   <g id="matplotlib.axis_2">
    <g id="ytick_1">
     <g id="line2d_1">
      <defs>
       <path d="M 0 0 
L -3.5 0 
" id="m4f8802e441" style="stroke:#000000;stroke-width:0.8;"/>
      </defs>
      <g>
       <use style="stroke:#000000;stroke-width:0.8;" x="41.923677" xlink:href="#m4f8802e441" y="51.815536"/>
      </g>
     </g>
     <g id="text_1">
      <!-- exp -->
      <g transform="translate(16.678365 55.614754)scale(0.1 -0.1)">
       <defs>
        <path d="M 3597 1894 
L 3597 1613 
L 953 1613 
Q 991 1019 1311 708 
Q 1631 397 2203 397 
Q 2534 397 2845 478 
Q 3156 559 3463 722 
L 3463 178 
Q 3153 47 2828 -22 
Q 2503 -91 2169 -91 
Q 1331 -91 842 396 
Q 353 884 353 1716 
Q 353 2575 817 3079 
Q 1281 3584 2069 3584 
Q 2775 3584 3186 3129 
Q 3597 2675 3597 1894 
z
M 3022 2063 
Q 3016 2534 2758 2815 
Q 2500 3097 2075 3097 
Q 1594 3097 1305 2825 
Q 1016 2553 972 2059 
L 3022 2063 
z
" id="DejaVuSans-65" transform="scale(0.015625)"/>
        <path d="M 3513 3500 
L 2247 1797 
L 3578 0 
L 2900 0 
L 1881 1375 
L 863 0 
L 184 0 
L 1544 1831 
L 300 3500 
L 978 3500 
L 1906 2253 
L 2834 3500 
L 3513 3500 
z
" id="DejaVuSans-78" transform="scale(0.015625)"/>
        <path d="M 1159 525 
L 1159 -1331 
L 581 -1331 
L 581 3500 
L 1159 3500 
L 1159 2969 
Q 1341 3281 1617 3432 
Q 1894 3584 2278 3584 
Q 2916 3584 3314 3078 
Q 3713 2572 3713 1747 
Q 3713 922 3314 415 
Q 2916 -91 2278 -91 
Q 1894 -91 1617 61 
Q 1341 213 1159 525 
z
M 3116 1747 
Q 3116 2381 2855 2742 
Q 2594 3103 2138 3103 
Q 1681 3103 1420 2742 
Q 1159 2381 1159 1747 
Q 1159 1113 1420 752 
Q 1681 391 2138 391 
Q 2594 391 2855 752 
Q 3116 1113 3116 1747 
z
" id="DejaVuSans-70" transform="scale(0.015625)"/>
       </defs>
       <use xlink:href="#DejaVuSans-65"/>
       <use x="59.773438" xlink:href="#DejaVuSans-78"/>
       <use x="118.953125" xlink:href="#DejaVuSans-70"/>
      </g>
     </g>
    </g>
    <g id="ytick_2">
     <g id="line2d_2">
      <g>
       <use style="stroke:#000000;stroke-width:0.8;" x="41.923677" xlink:href="#m4f8802e441" y="80.113167"/>
      </g>
     </g>
     <g id="text_2">
      <!-- ctr -->
      <g transform="translate(21.39399 83.912385)scale(0.1 -0.1)">
       <defs>
        <path d="M 3122 3366 
L 3122 2828 
Q 2878 2963 2633 3030 
Q 2388 3097 2138 3097 
Q 1578 3097 1268 2742 
Q 959 2388 959 1747 
Q 959 1106 1268 751 
Q 1578 397 2138 397 
Q 2388 397 2633 464 
Q 2878 531 3122 666 
L 3122 134 
Q 2881 22 2623 -34 
Q 2366 -91 2075 -91 
Q 1284 -91 818 406 
Q 353 903 353 1747 
Q 353 2603 823 3093 
Q 1294 3584 2113 3584 
Q 2378 3584 2631 3529 
Q 2884 3475 3122 3366 
z
" id="DejaVuSans-63" transform="scale(0.015625)"/>
        <path d="M 1172 4494 
L 1172 3500 
L 2356 3500 
L 2356 3053 
L 1172 3053 
L 1172 1153 
Q 1172 725 1289 603 
Q 1406 481 1766 481 
L 2356 481 
L 2356 0 
L 1766 0 
Q 1100 0 847 248 
Q 594 497 594 1153 
L 594 3053 
L 172 3053 
L 172 3500 
L 594 3500 
L 594 4494 
L 1172 4494 
z
" id="DejaVuSans-74" transform="scale(0.015625)"/>
        <path d="M 2631 2963 
Q 2534 3019 2420 3045 
Q 2306 3072 2169 3072 
Q 1681 3072 1420 2755 
Q 1159 2438 1159 1844 
L 1159 0 
L 581 0 
L 581 3500 
L 1159 3500 
L 1159 2956 
Q 1341 3275 1631 3429 
Q 1922 3584 2338 3584 
Q 2397 3584 2469 3576 
Q 2541 3569 2628 3553 
L 2631 2963 
z
" id="DejaVuSans-72" transform="scale(0.015625)"/>
       </defs>
       <use xlink:href="#DejaVuSans-63"/>
       <use x="54.980469" xlink:href="#DejaVuSans-74"/>
       <use x="94.189453" xlink:href="#DejaVuSans-72"/>
      </g>
     </g>
    </g>
    <g id="text_3">
     <!-- data -->
     <g transform="translate(10.598677 77.226851)rotate(-90)scale(0.1 -0.1)">
      <defs>
       <path d="M 2906 2969 
L 2906 4863 
L 3481 4863 
L 3481 0 
L 2906 0 
L 2906 525 
Q 2725 213 2448 61 
Q 2172 -91 1784 -91 
Q 1150 -91 751 415 
Q 353 922 353 1747 
Q 353 2572 751 3078 
Q 1150 3584 1784 3584 
Q 2172 3584 2448 3432 
Q 2725 3281 2906 2969 
z
M 947 1747 
Q 947 1113 1208 752 
Q 1469 391 1925 391 
Q 2381 391 2643 752 
Q 2906 1113 2906 1747 
Q 2906 2381 2643 2742 
Q 2381 3103 1925 3103 
Q 1469 3103 1208 2742 
Q 947 2381 947 1747 
z
" id="DejaVuSans-64" transform="scale(0.015625)"/>
       <path d="M 2194 1759 
Q 1497 1759 1228 1600 
Q 959 1441 959 1056 
Q 959 750 1161 570 
Q 1363 391 1709 391 
Q 2188 391 2477 730 
Q 2766 1069 2766 1631 
L 2766 1759 
L 2194 1759 
z
M 3341 1997 
L 3341 0 
L 2766 0 
L 2766 531 
Q 2569 213 2275 61 
Q 1981 -91 1556 -91 
Q 1019 -91 701 211 
Q 384 513 384 1019 
Q 384 1609 779 1909 
Q 1175 2209 1959 2209 
L 2766 2209 
L 2766 2266 
Q 2766 2663 2505 2880 
Q 2244 3097 1772 3097 
Q 1472 3097 1187 3025 
Q 903 2953 641 2809 
L 641 3341 
Q 956 3463 1253 3523 
Q 1550 3584 1831 3584 
Q 2591 3584 2966 3190 
Q 3341 2797 3341 1997 
z
" id="DejaVuSans-61" transform="scale(0.015625)"/>
      </defs>
      <use xlink:href="#DejaVuSans-64"/>
      <use x="63.476562" xlink:href="#DejaVuSans-61"/>
      <use x="124.755859" xlink:href="#DejaVuSans-74"/>
      <use x="163.964844" xlink:href="#DejaVuSans-61"/>
     </g>
    </g>
   </g>
   <g id="line2d_3">
    <path clip-path="url(#pcc3461f5fd)" d="M 82.830384 51.815536 
L 54.437789 51.815536 
" style="fill:none;stroke:#3f3f3f;stroke-linecap:square;stroke-width:1.5;"/>
   </g>
   <g id="line2d_4">
    <path clip-path="url(#pcc3461f5fd)" d="M 128.979553 51.815536 
L 167.599555 51.815536 
" style="fill:none;stroke:#3f3f3f;stroke-linecap:square;stroke-width:1.5;"/>
   </g>
   <g id="line2d_5">
    <path clip-path="url(#pcc3461f5fd)" d="M 54.437789 48.278332 
L 54.437789 55.352739 
" style="fill:none;stroke:#3f3f3f;stroke-linecap:square;stroke-width:1.5;"/>
   </g>
   <g id="line2d_6">
    <path clip-path="url(#pcc3461f5fd)" d="M 167.599555 48.278332 
L 167.599555 55.352739 
" style="fill:none;stroke:#3f3f3f;stroke-linecap:square;stroke-width:1.5;"/>
   </g>
   <g id="line2d_7"/>
   <g id="line2d_8">
    <path clip-path="url(#pcc3461f5fd)" d="M 90.144422 80.113167 
L 54.437789 80.113167 
" style="fill:none;stroke:#3f3f3f;stroke-linecap:square;stroke-width:1.5;"/>
   </g>
   <g id="line2d_9">
    <path clip-path="url(#pcc3461f5fd)" d="M 163.285484 80.113167 
L 220.476688 80.113167 
" style="fill:none;stroke:#3f3f3f;stroke-linecap:square;stroke-width:1.5;"/>
   </g>
   <g id="line2d_10">
    <path clip-path="url(#pcc3461f5fd)" d="M 54.437789 76.575963 
L 54.437789 83.65037 
" style="fill:none;stroke:#3f3f3f;stroke-linecap:square;stroke-width:1.5;"/>
   </g>
   <g id="line2d_11">
    <path clip-path="url(#pcc3461f5fd)" d="M 220.476688 76.575963 
L 220.476688 83.65037 
" style="fill:none;stroke:#3f3f3f;stroke-linecap:square;stroke-width:1.5;"/>
   </g>
   <g id="line2d_12">
    <defs>
     <path d="M -0 1.414214 
L 0.848528 0 
L 0 -1.414214 
L -0.848528 -0 
z
" id="ma81e128cbb" style="stroke:#3f3f3f;stroke-linejoin:miter;stroke-opacity:0.5;"/>
    </defs>
    <g clip-path="url(#pcc3461f5fd)">
     <use style="fill:#3f3f3f;fill-opacity:0.5;stroke:#3f3f3f;stroke-linejoin:miter;stroke-opacity:0.5;" x="241.577864" xlink:href="#ma81e128cbb" y="80.113167"/>
     <use style="fill:#3f3f3f;fill-opacity:0.5;stroke:#3f3f3f;stroke-linejoin:miter;stroke-opacity:0.5;" x="241.577864" xlink:href="#ma81e128cbb" y="80.113167"/>
     <use style="fill:#3f3f3f;fill-opacity:0.5;stroke:#3f3f3f;stroke-linejoin:miter;stroke-opacity:0.5;" x="241.577864" xlink:href="#ma81e128cbb" y="80.113167"/>
     <use style="fill:#3f3f3f;fill-opacity:0.5;stroke:#3f3f3f;stroke-linejoin:miter;stroke-opacity:0.5;" x="242.617259" xlink:href="#ma81e128cbb" y="80.113167"/>
     <use style="fill:#3f3f3f;fill-opacity:0.5;stroke:#3f3f3f;stroke-linejoin:miter;stroke-opacity:0.5;" x="242.617259" xlink:href="#ma81e128cbb" y="80.113167"/>
     <use style="fill:#3f3f3f;fill-opacity:0.5;stroke:#3f3f3f;stroke-linejoin:miter;stroke-opacity:0.5;" x="242.617259" xlink:href="#ma81e128cbb" y="80.113167"/>
     <use style="fill:#3f3f3f;fill-opacity:0.5;stroke:#3f3f3f;stroke-linejoin:miter;stroke-opacity:0.5;" x="221.52975" xlink:href="#ma81e128cbb" y="80.113167"/>
     <use style="fill:#3f3f3f;fill-opacity:0.5;stroke:#3f3f3f;stroke-linejoin:miter;stroke-opacity:0.5;" x="221.52975" xlink:href="#ma81e128cbb" y="80.113167"/>
     <use style="fill:#3f3f3f;fill-opacity:0.5;stroke:#3f3f3f;stroke-linejoin:miter;stroke-opacity:0.5;" x="227.293737" xlink:href="#ma81e128cbb" y="80.113167"/>
     <use style="fill:#3f3f3f;fill-opacity:0.5;stroke:#3f3f3f;stroke-linejoin:miter;stroke-opacity:0.5;" x="227.293737" xlink:href="#ma81e128cbb" y="80.113167"/>
     <use style="fill:#3f3f3f;fill-opacity:0.5;stroke:#3f3f3f;stroke-linejoin:miter;stroke-opacity:0.5;" x="224.960954" xlink:href="#ma81e128cbb" y="80.113167"/>
     <use style="fill:#3f3f3f;fill-opacity:0.5;stroke:#3f3f3f;stroke-linejoin:miter;stroke-opacity:0.5;" x="224.960954" xlink:href="#ma81e128cbb" y="80.113167"/>
     <use style="fill:#3f3f3f;fill-opacity:0.5;stroke:#3f3f3f;stroke-linejoin:miter;stroke-opacity:0.5;" x="224.960954" xlink:href="#ma81e128cbb" y="80.113167"/>
     <use style="fill:#3f3f3f;fill-opacity:0.5;stroke:#3f3f3f;stroke-linejoin:miter;stroke-opacity:0.5;" x="249.6893" xlink:href="#ma81e128cbb" y="80.113167"/>
     <use style="fill:#3f3f3f;fill-opacity:0.5;stroke:#3f3f3f;stroke-linejoin:miter;stroke-opacity:0.5;" x="249.6893" xlink:href="#ma81e128cbb" y="80.113167"/>
     <use style="fill:#3f3f3f;fill-opacity:0.5;stroke:#3f3f3f;stroke-linejoin:miter;stroke-opacity:0.5;" x="249.6893" xlink:href="#ma81e128cbb" y="80.113167"/>
     <use style="fill:#3f3f3f;fill-opacity:0.5;stroke:#3f3f3f;stroke-linejoin:miter;stroke-opacity:0.5;" x="304.720023" xlink:href="#ma81e128cbb" y="80.113167"/>
     <use style="fill:#3f3f3f;fill-opacity:0.5;stroke:#3f3f3f;stroke-linejoin:miter;stroke-opacity:0.5;" x="304.720023" xlink:href="#ma81e128cbb" y="80.113167"/>
     <use style="fill:#3f3f3f;fill-opacity:0.5;stroke:#3f3f3f;stroke-linejoin:miter;stroke-opacity:0.5;" x="304.720023" xlink:href="#ma81e128cbb" y="80.113167"/>
     <use style="fill:#3f3f3f;fill-opacity:0.5;stroke:#3f3f3f;stroke-linejoin:miter;stroke-opacity:0.5;" x="304.720023" xlink:href="#ma81e128cbb" y="80.113167"/>
     <use style="fill:#3f3f3f;fill-opacity:0.5;stroke:#3f3f3f;stroke-linejoin:miter;stroke-opacity:0.5;" x="304.720023" xlink:href="#ma81e128cbb" y="80.113167"/>
     <use style="fill:#3f3f3f;fill-opacity:0.5;stroke:#3f3f3f;stroke-linejoin:miter;stroke-opacity:0.5;" x="250.386789" xlink:href="#ma81e128cbb" y="80.113167"/>
     <use style="fill:#3f3f3f;fill-opacity:0.5;stroke:#3f3f3f;stroke-linejoin:miter;stroke-opacity:0.5;" x="250.386789" xlink:href="#ma81e128cbb" y="80.113167"/>
     <use style="fill:#3f3f3f;fill-opacity:0.5;stroke:#3f3f3f;stroke-linejoin:miter;stroke-opacity:0.5;" x="250.386789" xlink:href="#ma81e128cbb" y="80.113167"/>
     <use style="fill:#3f3f3f;fill-opacity:0.5;stroke:#3f3f3f;stroke-linejoin:miter;stroke-opacity:0.5;" x="233.670185" xlink:href="#ma81e128cbb" y="80.113167"/>
     <use style="fill:#3f3f3f;fill-opacity:0.5;stroke:#3f3f3f;stroke-linejoin:miter;stroke-opacity:0.5;" x="233.670185" xlink:href="#ma81e128cbb" y="80.113167"/>
     <use style="fill:#3f3f3f;fill-opacity:0.5;stroke:#3f3f3f;stroke-linejoin:miter;stroke-opacity:0.5;" x="233.670185" xlink:href="#ma81e128cbb" y="80.113167"/>
     <use style="fill:#3f3f3f;fill-opacity:0.5;stroke:#3f3f3f;stroke-linejoin:miter;stroke-opacity:0.5;" x="264.15028" xlink:href="#ma81e128cbb" y="80.113167"/>
     <use style="fill:#3f3f3f;fill-opacity:0.5;stroke:#3f3f3f;stroke-linejoin:miter;stroke-opacity:0.5;" x="264.15028" xlink:href="#ma81e128cbb" y="80.113167"/>
     <use style="fill:#3f3f3f;fill-opacity:0.5;stroke:#3f3f3f;stroke-linejoin:miter;stroke-opacity:0.5;" x="264.15028" xlink:href="#ma81e128cbb" y="80.113167"/>
     <use style="fill:#3f3f3f;fill-opacity:0.5;stroke:#3f3f3f;stroke-linejoin:miter;stroke-opacity:0.5;" x="264.15028" xlink:href="#ma81e128cbb" y="80.113167"/>
     <use style="fill:#3f3f3f;fill-opacity:0.5;stroke:#3f3f3f;stroke-linejoin:miter;stroke-opacity:0.5;" x="269.875423" xlink:href="#ma81e128cbb" y="80.113167"/>
     <use style="fill:#3f3f3f;fill-opacity:0.5;stroke:#3f3f3f;stroke-linejoin:miter;stroke-opacity:0.5;" x="269.875423" xlink:href="#ma81e128cbb" y="80.113167"/>
     <use style="fill:#3f3f3f;fill-opacity:0.5;stroke:#3f3f3f;stroke-linejoin:miter;stroke-opacity:0.5;" x="269.875423" xlink:href="#ma81e128cbb" y="80.113167"/>
     <use style="fill:#3f3f3f;fill-opacity:0.5;stroke:#3f3f3f;stroke-linejoin:miter;stroke-opacity:0.5;" x="231.590143" xlink:href="#ma81e128cbb" y="80.113167"/>
     <use style="fill:#3f3f3f;fill-opacity:0.5;stroke:#3f3f3f;stroke-linejoin:miter;stroke-opacity:0.5;" x="231.590143" xlink:href="#ma81e128cbb" y="80.113167"/>
     <use style="fill:#3f3f3f;fill-opacity:0.5;stroke:#3f3f3f;stroke-linejoin:miter;stroke-opacity:0.5;" x="231.590143" xlink:href="#ma81e128cbb" y="80.113167"/>
     <use style="fill:#3f3f3f;fill-opacity:0.5;stroke:#3f3f3f;stroke-linejoin:miter;stroke-opacity:0.5;" x="254.72103" xlink:href="#ma81e128cbb" y="80.113167"/>
     <use style="fill:#3f3f3f;fill-opacity:0.5;stroke:#3f3f3f;stroke-linejoin:miter;stroke-opacity:0.5;" x="254.72103" xlink:href="#ma81e128cbb" y="80.113167"/>
     <use style="fill:#3f3f3f;fill-opacity:0.5;stroke:#3f3f3f;stroke-linejoin:miter;stroke-opacity:0.5;" x="234.693994" xlink:href="#ma81e128cbb" y="80.113167"/>
     <use style="fill:#3f3f3f;fill-opacity:0.5;stroke:#3f3f3f;stroke-linejoin:miter;stroke-opacity:0.5;" x="234.693994" xlink:href="#ma81e128cbb" y="80.113167"/>
     <use style="fill:#3f3f3f;fill-opacity:0.5;stroke:#3f3f3f;stroke-linejoin:miter;stroke-opacity:0.5;" x="234.693994" xlink:href="#ma81e128cbb" y="80.113167"/>
     <use style="fill:#3f3f3f;fill-opacity:0.5;stroke:#3f3f3f;stroke-linejoin:miter;stroke-opacity:0.5;" x="230.320745" xlink:href="#ma81e128cbb" y="80.113167"/>
     <use style="fill:#3f3f3f;fill-opacity:0.5;stroke:#3f3f3f;stroke-linejoin:miter;stroke-opacity:0.5;" x="230.320745" xlink:href="#ma81e128cbb" y="80.113167"/>
     <use style="fill:#3f3f3f;fill-opacity:0.5;stroke:#3f3f3f;stroke-linejoin:miter;stroke-opacity:0.5;" x="248.368071" xlink:href="#ma81e128cbb" y="80.113167"/>
     <use style="fill:#3f3f3f;fill-opacity:0.5;stroke:#3f3f3f;stroke-linejoin:miter;stroke-opacity:0.5;" x="248.368071" xlink:href="#ma81e128cbb" y="80.113167"/>
     <use style="fill:#3f3f3f;fill-opacity:0.5;stroke:#3f3f3f;stroke-linejoin:miter;stroke-opacity:0.5;" x="248.368071" xlink:href="#ma81e128cbb" y="80.113167"/>
     <use style="fill:#3f3f3f;fill-opacity:0.5;stroke:#3f3f3f;stroke-linejoin:miter;stroke-opacity:0.5;" x="248.368071" xlink:href="#ma81e128cbb" y="80.113167"/>
     <use style="fill:#3f3f3f;fill-opacity:0.5;stroke:#3f3f3f;stroke-linejoin:miter;stroke-opacity:0.5;" x="225.073298" xlink:href="#ma81e128cbb" y="80.113167"/>
     <use style="fill:#3f3f3f;fill-opacity:0.5;stroke:#3f3f3f;stroke-linejoin:miter;stroke-opacity:0.5;" x="225.073298" xlink:href="#ma81e128cbb" y="80.113167"/>
     <use style="fill:#3f3f3f;fill-opacity:0.5;stroke:#3f3f3f;stroke-linejoin:miter;stroke-opacity:0.5;" x="269.01596" xlink:href="#ma81e128cbb" y="80.113167"/>
     <use style="fill:#3f3f3f;fill-opacity:0.5;stroke:#3f3f3f;stroke-linejoin:miter;stroke-opacity:0.5;" x="269.01596" xlink:href="#ma81e128cbb" y="80.113167"/>
     <use style="fill:#3f3f3f;fill-opacity:0.5;stroke:#3f3f3f;stroke-linejoin:miter;stroke-opacity:0.5;" x="269.01596" xlink:href="#ma81e128cbb" y="80.113167"/>
     <use style="fill:#3f3f3f;fill-opacity:0.5;stroke:#3f3f3f;stroke-linejoin:miter;stroke-opacity:0.5;" x="256.370097" xlink:href="#ma81e128cbb" y="80.113167"/>
     <use style="fill:#3f3f3f;fill-opacity:0.5;stroke:#3f3f3f;stroke-linejoin:miter;stroke-opacity:0.5;" x="256.370097" xlink:href="#ma81e128cbb" y="80.113167"/>
     <use style="fill:#3f3f3f;fill-opacity:0.5;stroke:#3f3f3f;stroke-linejoin:miter;stroke-opacity:0.5;" x="256.370097" xlink:href="#ma81e128cbb" y="80.113167"/>
     <use style="fill:#3f3f3f;fill-opacity:0.5;stroke:#3f3f3f;stroke-linejoin:miter;stroke-opacity:0.5;" x="234.387965" xlink:href="#ma81e128cbb" y="80.113167"/>
     <use style="fill:#3f3f3f;fill-opacity:0.5;stroke:#3f3f3f;stroke-linejoin:miter;stroke-opacity:0.5;" x="234.387965" xlink:href="#ma81e128cbb" y="80.113167"/>
     <use style="fill:#3f3f3f;fill-opacity:0.5;stroke:#3f3f3f;stroke-linejoin:miter;stroke-opacity:0.5;" x="225.073298" xlink:href="#ma81e128cbb" y="80.113167"/>
     <use style="fill:#3f3f3f;fill-opacity:0.5;stroke:#3f3f3f;stroke-linejoin:miter;stroke-opacity:0.5;" x="225.073298" xlink:href="#ma81e128cbb" y="80.113167"/>
     <use style="fill:#3f3f3f;fill-opacity:0.5;stroke:#3f3f3f;stroke-linejoin:miter;stroke-opacity:0.5;" x="222.456464" xlink:href="#ma81e128cbb" y="80.113167"/>
     <use style="fill:#3f3f3f;fill-opacity:0.5;stroke:#3f3f3f;stroke-linejoin:miter;stroke-opacity:0.5;" x="222.456464" xlink:href="#ma81e128cbb" y="80.113167"/>
     <use style="fill:#3f3f3f;fill-opacity:0.5;stroke:#3f3f3f;stroke-linejoin:miter;stroke-opacity:0.5;" x="222.456464" xlink:href="#ma81e128cbb" y="80.113167"/>
     <use style="fill:#3f3f3f;fill-opacity:0.5;stroke:#3f3f3f;stroke-linejoin:miter;stroke-opacity:0.5;" x="245.214628" xlink:href="#ma81e128cbb" y="80.113167"/>
     <use style="fill:#3f3f3f;fill-opacity:0.5;stroke:#3f3f3f;stroke-linejoin:miter;stroke-opacity:0.5;" x="245.214628" xlink:href="#ma81e128cbb" y="80.113167"/>
     <use style="fill:#3f3f3f;fill-opacity:0.5;stroke:#3f3f3f;stroke-linejoin:miter;stroke-opacity:0.5;" x="245.214628" xlink:href="#ma81e128cbb" y="80.113167"/>
     <use style="fill:#3f3f3f;fill-opacity:0.5;stroke:#3f3f3f;stroke-linejoin:miter;stroke-opacity:0.5;" x="226.189761" xlink:href="#ma81e128cbb" y="80.113167"/>
     <use style="fill:#3f3f3f;fill-opacity:0.5;stroke:#3f3f3f;stroke-linejoin:miter;stroke-opacity:0.5;" x="226.189761" xlink:href="#ma81e128cbb" y="80.113167"/>
     <use style="fill:#3f3f3f;fill-opacity:0.5;stroke:#3f3f3f;stroke-linejoin:miter;stroke-opacity:0.5;" x="226.189761" xlink:href="#ma81e128cbb" y="80.113167"/>
     <use style="fill:#3f3f3f;fill-opacity:0.5;stroke:#3f3f3f;stroke-linejoin:miter;stroke-opacity:0.5;" x="232.323155" xlink:href="#ma81e128cbb" y="80.113167"/>
     <use style="fill:#3f3f3f;fill-opacity:0.5;stroke:#3f3f3f;stroke-linejoin:miter;stroke-opacity:0.5;" x="232.323155" xlink:href="#ma81e128cbb" y="80.113167"/>
     <use style="fill:#3f3f3f;fill-opacity:0.5;stroke:#3f3f3f;stroke-linejoin:miter;stroke-opacity:0.5;" x="232.323155" xlink:href="#ma81e128cbb" y="80.113167"/>
     <use style="fill:#3f3f3f;fill-opacity:0.5;stroke:#3f3f3f;stroke-linejoin:miter;stroke-opacity:0.5;" x="274.268761" xlink:href="#ma81e128cbb" y="80.113167"/>
     <use style="fill:#3f3f3f;fill-opacity:0.5;stroke:#3f3f3f;stroke-linejoin:miter;stroke-opacity:0.5;" x="274.268761" xlink:href="#ma81e128cbb" y="80.113167"/>
     <use style="fill:#3f3f3f;fill-opacity:0.5;stroke:#3f3f3f;stroke-linejoin:miter;stroke-opacity:0.5;" x="274.268761" xlink:href="#ma81e128cbb" y="80.113167"/>
     <use style="fill:#3f3f3f;fill-opacity:0.5;stroke:#3f3f3f;stroke-linejoin:miter;stroke-opacity:0.5;" x="242.240562" xlink:href="#ma81e128cbb" y="80.113167"/>
     <use style="fill:#3f3f3f;fill-opacity:0.5;stroke:#3f3f3f;stroke-linejoin:miter;stroke-opacity:0.5;" x="242.240562" xlink:href="#ma81e128cbb" y="80.113167"/>
     <use style="fill:#3f3f3f;fill-opacity:0.5;stroke:#3f3f3f;stroke-linejoin:miter;stroke-opacity:0.5;" x="242.240562" xlink:href="#ma81e128cbb" y="80.113167"/>
     <use style="fill:#3f3f3f;fill-opacity:0.5;stroke:#3f3f3f;stroke-linejoin:miter;stroke-opacity:0.5;" x="231.800131" xlink:href="#ma81e128cbb" y="80.113167"/>
     <use style="fill:#3f3f3f;fill-opacity:0.5;stroke:#3f3f3f;stroke-linejoin:miter;stroke-opacity:0.5;" x="231.800131" xlink:href="#ma81e128cbb" y="80.113167"/>
     <use style="fill:#3f3f3f;fill-opacity:0.5;stroke:#3f3f3f;stroke-linejoin:miter;stroke-opacity:0.5;" x="226.963839" xlink:href="#ma81e128cbb" y="80.113167"/>
     <use style="fill:#3f3f3f;fill-opacity:0.5;stroke:#3f3f3f;stroke-linejoin:miter;stroke-opacity:0.5;" x="226.963839" xlink:href="#ma81e128cbb" y="80.113167"/>
     <use style="fill:#3f3f3f;fill-opacity:0.5;stroke:#3f3f3f;stroke-linejoin:miter;stroke-opacity:0.5;" x="223.260262" xlink:href="#ma81e128cbb" y="80.113167"/>
     <use style="fill:#3f3f3f;fill-opacity:0.5;stroke:#3f3f3f;stroke-linejoin:miter;stroke-opacity:0.5;" x="223.260262" xlink:href="#ma81e128cbb" y="80.113167"/>
     <use style="fill:#3f3f3f;fill-opacity:0.5;stroke:#3f3f3f;stroke-linejoin:miter;stroke-opacity:0.5;" x="223.260262" xlink:href="#ma81e128cbb" y="80.113167"/>
     <use style="fill:#3f3f3f;fill-opacity:0.5;stroke:#3f3f3f;stroke-linejoin:miter;stroke-opacity:0.5;" x="243.645821" xlink:href="#ma81e128cbb" y="80.113167"/>
     <use style="fill:#3f3f3f;fill-opacity:0.5;stroke:#3f3f3f;stroke-linejoin:miter;stroke-opacity:0.5;" x="243.645821" xlink:href="#ma81e128cbb" y="80.113167"/>
     <use style="fill:#3f3f3f;fill-opacity:0.5;stroke:#3f3f3f;stroke-linejoin:miter;stroke-opacity:0.5;" x="243.645821" xlink:href="#ma81e128cbb" y="80.113167"/>
     <use style="fill:#3f3f3f;fill-opacity:0.5;stroke:#3f3f3f;stroke-linejoin:miter;stroke-opacity:0.5;" x="243.645821" xlink:href="#ma81e128cbb" y="80.113167"/>
     <use style="fill:#3f3f3f;fill-opacity:0.5;stroke:#3f3f3f;stroke-linejoin:miter;stroke-opacity:0.5;" x="228.818845" xlink:href="#ma81e128cbb" y="80.113167"/>
     <use style="fill:#3f3f3f;fill-opacity:0.5;stroke:#3f3f3f;stroke-linejoin:miter;stroke-opacity:0.5;" x="228.818845" xlink:href="#ma81e128cbb" y="80.113167"/>
     <use style="fill:#3f3f3f;fill-opacity:0.5;stroke:#3f3f3f;stroke-linejoin:miter;stroke-opacity:0.5;" x="229.357865" xlink:href="#ma81e128cbb" y="80.113167"/>
     <use style="fill:#3f3f3f;fill-opacity:0.5;stroke:#3f3f3f;stroke-linejoin:miter;stroke-opacity:0.5;" x="229.357865" xlink:href="#ma81e128cbb" y="80.113167"/>
    </g>
   </g>
   <g id="line2d_13">
    <path clip-path="url(#pcc3461f5fd)" d="M 103.707989 44.741128 
L 103.707989 58.889943 
" style="fill:none;stroke:#3f3f3f;stroke-linecap:square;stroke-width:1.5;"/>
   </g>
   <g id="line2d_14">
    <path clip-path="url(#pcc3461f5fd)" d="M 120.607984 73.038759 
L 120.607984 87.187574 
" style="fill:none;stroke:#3f3f3f;stroke-linecap:square;stroke-width:1.5;"/>
   </g>
   <g id="patch_5">
    <path d="M 41.923677 94.261982 
L 41.923677 37.66672 
" style="fill:none;stroke:#000000;stroke-linecap:square;stroke-linejoin:miter;stroke-width:0.8;"/>
   </g>
   <g id="patch_6">
    <path d="M 317.234135 94.261982 
L 317.234135 37.66672 
" style="fill:none;stroke:#000000;stroke-linecap:square;stroke-linejoin:miter;stroke-width:0.8;"/>
   </g>
   <g id="patch_7">
    <path d="M 41.923678 94.261982 
L 317.234135 94.261982 
" style="fill:none;stroke:#000000;stroke-linecap:square;stroke-linejoin:miter;stroke-width:0.8;"/>
   </g>
   <g id="patch_8">
    <path d="M 41.923678 37.66672 
L 317.234135 37.66672 
" style="fill:none;stroke:#000000;stroke-linecap:square;stroke-linejoin:miter;stroke-width:0.8;"/>
   </g>
   <g id="text_4">
    <!-- MWU exp(U=434736.5,n=485)/ctr(U=745753.5,n=2434) -->
    <g transform="translate(41.923677 27.02697)scale(0.08 -0.08)">
     <defs>
      <path d="M 628 4666 
L 1569 4666 
L 2759 1491 
L 3956 4666 
L 4897 4666 
L 4897 0 
L 4281 0 
L 4281 4097 
L 3078 897 
L 2444 897 
L 1241 4097 
L 1241 0 
L 628 0 
L 628 4666 
z
" id="DejaVuSans-4d" transform="scale(0.015625)"/>
      <path d="M 213 4666 
L 850 4666 
L 1831 722 
L 2809 4666 
L 3519 4666 
L 4500 722 
L 5478 4666 
L 6119 4666 
L 4947 0 
L 4153 0 
L 3169 4050 
L 2175 0 
L 1381 0 
L 213 4666 
z
" id="DejaVuSans-57" transform="scale(0.015625)"/>
      <path d="M 556 4666 
L 1191 4666 
L 1191 1831 
Q 1191 1081 1462 751 
Q 1734 422 2344 422 
Q 2950 422 3222 751 
Q 3494 1081 3494 1831 
L 3494 4666 
L 4128 4666 
L 4128 1753 
Q 4128 841 3676 375 
Q 3225 -91 2344 -91 
Q 1459 -91 1007 375 
Q 556 841 556 1753 
L 556 4666 
z
" id="DejaVuSans-55" transform="scale(0.015625)"/>
      <path id="DejaVuSans-20" transform="scale(0.015625)"/>
      <path d="M 1984 4856 
Q 1566 4138 1362 3434 
Q 1159 2731 1159 2009 
Q 1159 1288 1364 580 
Q 1569 -128 1984 -844 
L 1484 -844 
Q 1016 -109 783 600 
Q 550 1309 550 2009 
Q 550 2706 781 3412 
Q 1013 4119 1484 4856 
L 1984 4856 
z
" id="DejaVuSans-28" transform="scale(0.015625)"/>
      <path d="M 678 2906 
L 4684 2906 
L 4684 2381 
L 678 2381 
L 678 2906 
z
M 678 1631 
L 4684 1631 
L 4684 1100 
L 678 1100 
L 678 1631 
z
" id="DejaVuSans-3d" transform="scale(0.015625)"/>
      <path d="M 2419 4116 
L 825 1625 
L 2419 1625 
L 2419 4116 
z
M 2253 4666 
L 3047 4666 
L 3047 1625 
L 3713 1625 
L 3713 1100 
L 3047 1100 
L 3047 0 
L 2419 0 
L 2419 1100 
L 313 1100 
L 313 1709 
L 2253 4666 
z
" id="DejaVuSans-34" transform="scale(0.015625)"/>
      <path d="M 2597 2516 
Q 3050 2419 3304 2112 
Q 3559 1806 3559 1356 
Q 3559 666 3084 287 
Q 2609 -91 1734 -91 
Q 1441 -91 1130 -33 
Q 819 25 488 141 
L 488 750 
Q 750 597 1062 519 
Q 1375 441 1716 441 
Q 2309 441 2620 675 
Q 2931 909 2931 1356 
Q 2931 1769 2642 2001 
Q 2353 2234 1838 2234 
L 1294 2234 
L 1294 2753 
L 1863 2753 
Q 2328 2753 2575 2939 
Q 2822 3125 2822 3475 
Q 2822 3834 2567 4026 
Q 2313 4219 1838 4219 
Q 1578 4219 1281 4162 
Q 984 4106 628 3988 
L 628 4550 
Q 988 4650 1302 4700 
Q 1616 4750 1894 4750 
Q 2613 4750 3031 4423 
Q 3450 4097 3450 3541 
Q 3450 3153 3228 2886 
Q 3006 2619 2597 2516 
z
" id="DejaVuSans-33" transform="scale(0.015625)"/>
      <path d="M 525 4666 
L 3525 4666 
L 3525 4397 
L 1831 0 
L 1172 0 
L 2766 4134 
L 525 4134 
L 525 4666 
z
" id="DejaVuSans-37" transform="scale(0.015625)"/>
      <path d="M 2113 2584 
Q 1688 2584 1439 2293 
Q 1191 2003 1191 1497 
Q 1191 994 1439 701 
Q 1688 409 2113 409 
Q 2538 409 2786 701 
Q 3034 994 3034 1497 
Q 3034 2003 2786 2293 
Q 2538 2584 2113 2584 
z
M 3366 4563 
L 3366 3988 
Q 3128 4100 2886 4159 
Q 2644 4219 2406 4219 
Q 1781 4219 1451 3797 
Q 1122 3375 1075 2522 
Q 1259 2794 1537 2939 
Q 1816 3084 2150 3084 
Q 2853 3084 3261 2657 
Q 3669 2231 3669 1497 
Q 3669 778 3244 343 
Q 2819 -91 2113 -91 
Q 1303 -91 875 529 
Q 447 1150 447 2328 
Q 447 3434 972 4092 
Q 1497 4750 2381 4750 
Q 2619 4750 2861 4703 
Q 3103 4656 3366 4563 
z
" id="DejaVuSans-36" transform="scale(0.015625)"/>
      <path d="M 684 794 
L 1344 794 
L 1344 0 
L 684 0 
L 684 794 
z
" id="DejaVuSans-2e" transform="scale(0.015625)"/>
      <path d="M 691 4666 
L 3169 4666 
L 3169 4134 
L 1269 4134 
L 1269 2991 
Q 1406 3038 1543 3061 
Q 1681 3084 1819 3084 
Q 2600 3084 3056 2656 
Q 3513 2228 3513 1497 
Q 3513 744 3044 326 
Q 2575 -91 1722 -91 
Q 1428 -91 1123 -41 
Q 819 9 494 109 
L 494 744 
Q 775 591 1075 516 
Q 1375 441 1709 441 
Q 2250 441 2565 725 
Q 2881 1009 2881 1497 
Q 2881 1984 2565 2268 
Q 2250 2553 1709 2553 
Q 1456 2553 1204 2497 
Q 953 2441 691 2322 
L 691 4666 
z
" id="DejaVuSans-35" transform="scale(0.015625)"/>
      <path d="M 750 794 
L 1409 794 
L 1409 256 
L 897 -744 
L 494 -744 
L 750 256 
L 750 794 
z
" id="DejaVuSans-2c" transform="scale(0.015625)"/>
      <path d="M 3513 2113 
L 3513 0 
L 2938 0 
L 2938 2094 
Q 2938 2591 2744 2837 
Q 2550 3084 2163 3084 
Q 1697 3084 1428 2787 
Q 1159 2491 1159 1978 
L 1159 0 
L 581 0 
L 581 3500 
L 1159 3500 
L 1159 2956 
Q 1366 3272 1645 3428 
Q 1925 3584 2291 3584 
Q 2894 3584 3203 3211 
Q 3513 2838 3513 2113 
z
" id="DejaVuSans-6e" transform="scale(0.015625)"/>
      <path d="M 2034 2216 
Q 1584 2216 1326 1975 
Q 1069 1734 1069 1313 
Q 1069 891 1326 650 
Q 1584 409 2034 409 
Q 2484 409 2743 651 
Q 3003 894 3003 1313 
Q 3003 1734 2745 1975 
Q 2488 2216 2034 2216 
z
M 1403 2484 
Q 997 2584 770 2862 
Q 544 3141 544 3541 
Q 544 4100 942 4425 
Q 1341 4750 2034 4750 
Q 2731 4750 3128 4425 
Q 3525 4100 3525 3541 
Q 3525 3141 3298 2862 
Q 3072 2584 2669 2484 
Q 3125 2378 3379 2068 
Q 3634 1759 3634 1313 
Q 3634 634 3220 271 
Q 2806 -91 2034 -91 
Q 1263 -91 848 271 
Q 434 634 434 1313 
Q 434 1759 690 2068 
Q 947 2378 1403 2484 
z
M 1172 3481 
Q 1172 3119 1398 2916 
Q 1625 2713 2034 2713 
Q 2441 2713 2670 2916 
Q 2900 3119 2900 3481 
Q 2900 3844 2670 4047 
Q 2441 4250 2034 4250 
Q 1625 4250 1398 4047 
Q 1172 3844 1172 3481 
z
" id="DejaVuSans-38" transform="scale(0.015625)"/>
      <path d="M 513 4856 
L 1013 4856 
Q 1481 4119 1714 3412 
Q 1947 2706 1947 2009 
Q 1947 1309 1714 600 
Q 1481 -109 1013 -844 
L 513 -844 
Q 928 -128 1133 580 
Q 1338 1288 1338 2009 
Q 1338 2731 1133 3434 
Q 928 4138 513 4856 
z
" id="DejaVuSans-29" transform="scale(0.015625)"/>
      <path d="M 1625 4666 
L 2156 4666 
L 531 -594 
L 0 -594 
L 1625 4666 
z
" id="DejaVuSans-2f" transform="scale(0.015625)"/>
      <path d="M 1228 531 
L 3431 531 
L 3431 0 
L 469 0 
L 469 531 
Q 828 903 1448 1529 
Q 2069 2156 2228 2338 
Q 2531 2678 2651 2914 
Q 2772 3150 2772 3378 
Q 2772 3750 2511 3984 
Q 2250 4219 1831 4219 
Q 1534 4219 1204 4116 
Q 875 4013 500 3803 
L 500 4441 
Q 881 4594 1212 4672 
Q 1544 4750 1819 4750 
Q 2544 4750 2975 4387 
Q 3406 4025 3406 3419 
Q 3406 3131 3298 2873 
Q 3191 2616 2906 2266 
Q 2828 2175 2409 1742 
Q 1991 1309 1228 531 
z
" id="DejaVuSans-32" transform="scale(0.015625)"/>
     </defs>
     <use xlink:href="#DejaVuSans-4d"/>
     <use x="86.279297" xlink:href="#DejaVuSans-57"/>
     <use x="185.15625" xlink:href="#DejaVuSans-55"/>
     <use x="258.349609" xlink:href="#DejaVuSans-20"/>
     <use x="290.136719" xlink:href="#DejaVuSans-65"/>
     <use x="349.910156" xlink:href="#DejaVuSans-78"/>
     <use x="409.089844" xlink:href="#DejaVuSans-70"/>
     <use x="472.566406" xlink:href="#DejaVuSans-28"/>
     <use x="511.580078" xlink:href="#DejaVuSans-55"/>
     <use x="584.773438" xlink:href="#DejaVuSans-3d"/>
     <use x="668.5625" xlink:href="#DejaVuSans-34"/>
     <use x="732.185547" xlink:href="#DejaVuSans-33"/>
     <use x="795.808594" xlink:href="#DejaVuSans-34"/>
     <use x="859.431641" xlink:href="#DejaVuSans-37"/>
     <use x="923.054688" xlink:href="#DejaVuSans-33"/>
     <use x="986.677734" xlink:href="#DejaVuSans-36"/>
     <use x="1050.300781" xlink:href="#DejaVuSans-2e"/>
     <use x="1082.087891" xlink:href="#DejaVuSans-35"/>
     <use x="1145.710938" xlink:href="#DejaVuSans-2c"/>
     <use x="1177.498047" xlink:href="#DejaVuSans-6e"/>
     <use x="1240.876953" xlink:href="#DejaVuSans-3d"/>
     <use x="1324.666016" xlink:href="#DejaVuSans-34"/>
     <use x="1388.289062" xlink:href="#DejaVuSans-38"/>
     <use x="1451.912109" xlink:href="#DejaVuSans-35"/>
     <use x="1515.535156" xlink:href="#DejaVuSans-29"/>
     <use x="1554.548828" xlink:href="#DejaVuSans-2f"/>
     <use x="1588.240234" xlink:href="#DejaVuSans-63"/>
     <use x="1643.220703" xlink:href="#DejaVuSans-74"/>
     <use x="1682.429688" xlink:href="#DejaVuSans-72"/>
     <use x="1723.542969" xlink:href="#DejaVuSans-28"/>
     <use x="1762.556641" xlink:href="#DejaVuSans-55"/>
     <use x="1835.75" xlink:href="#DejaVuSans-3d"/>
     <use x="1919.539062" xlink:href="#DejaVuSans-37"/>
     <use x="1983.162109" xlink:href="#DejaVuSans-34"/>
     <use x="2046.785156" xlink:href="#DejaVuSans-35"/>
     <use x="2110.408203" xlink:href="#DejaVuSans-37"/>
     <use x="2174.03125" xlink:href="#DejaVuSans-35"/>
     <use x="2237.654297" xlink:href="#DejaVuSans-33"/>
     <use x="2301.277344" xlink:href="#DejaVuSans-2e"/>
     <use x="2333.064453" xlink:href="#DejaVuSans-35"/>
     <use x="2396.6875" xlink:href="#DejaVuSans-2c"/>
     <use x="2428.474609" xlink:href="#DejaVuSans-6e"/>
     <use x="2491.853516" xlink:href="#DejaVuSans-3d"/>
     <use x="2575.642578" xlink:href="#DejaVuSans-32"/>
     <use x="2639.265625" xlink:href="#DejaVuSans-34"/>
     <use x="2702.888672" xlink:href="#DejaVuSans-33"/>
     <use x="2766.511719" xlink:href="#DejaVuSans-34"/>
     <use x="2830.134766" xlink:href="#DejaVuSans-29"/>
    </g>
    <!-- exp less $p$-value = 2.250e-20 -->
    <g transform="translate(41.923677 35.98672)scale(0.08 -0.08)">
     <defs>
      <path d="M 603 4863 
L 1178 4863 
L 1178 0 
L 603 0 
L 603 4863 
z
" id="DejaVuSans-6c" transform="scale(0.015625)"/>
      <path d="M 2834 3397 
L 2834 2853 
Q 2591 2978 2328 3040 
Q 2066 3103 1784 3103 
Q 1356 3103 1142 2972 
Q 928 2841 928 2578 
Q 928 2378 1081 2264 
Q 1234 2150 1697 2047 
L 1894 2003 
Q 2506 1872 2764 1633 
Q 3022 1394 3022 966 
Q 3022 478 2636 193 
Q 2250 -91 1575 -91 
Q 1294 -91 989 -36 
Q 684 19 347 128 
L 347 722 
Q 666 556 975 473 
Q 1284 391 1588 391 
Q 1994 391 2212 530 
Q 2431 669 2431 922 
Q 2431 1156 2273 1281 
Q 2116 1406 1581 1522 
L 1381 1569 
Q 847 1681 609 1914 
Q 372 2147 372 2553 
Q 372 3047 722 3315 
Q 1072 3584 1716 3584 
Q 2034 3584 2315 3537 
Q 2597 3491 2834 3397 
z
" id="DejaVuSans-73" transform="scale(0.015625)"/>
      <path d="M 3175 2156 
Q 3175 2616 2975 2859 
Q 2775 3103 2400 3103 
Q 2144 3103 1911 2972 
Q 1678 2841 1497 2591 
Q 1319 2344 1212 1994 
Q 1106 1644 1106 1300 
Q 1106 863 1306 627 
Q 1506 391 1875 391 
Q 2147 391 2380 519 
Q 2613 647 2778 891 
Q 2956 1147 3065 1494 
Q 3175 1841 3175 2156 
z
M 1394 2969 
Q 1625 3272 1939 3428 
Q 2253 3584 2638 3584 
Q 3175 3584 3472 3232 
Q 3769 2881 3769 2247 
Q 3769 1728 3584 1258 
Q 3400 788 3053 416 
Q 2822 169 2531 39 
Q 2241 -91 1919 -91 
Q 1547 -91 1294 64 
Q 1041 219 916 525 
L 556 -1331 
L -19 -1331 
L 922 3500 
L 1497 3500 
L 1394 2969 
z
" id="DejaVuSans-Oblique-70" transform="scale(0.015625)"/>
      <path d="M 313 2009 
L 1997 2009 
L 1997 1497 
L 313 1497 
L 313 2009 
z
" id="DejaVuSans-2d" transform="scale(0.015625)"/>
      <path d="M 191 3500 
L 800 3500 
L 1894 563 
L 2988 3500 
L 3597 3500 
L 2284 0 
L 1503 0 
L 191 3500 
z
" id="DejaVuSans-76" transform="scale(0.015625)"/>
      <path d="M 544 1381 
L 544 3500 
L 1119 3500 
L 1119 1403 
Q 1119 906 1312 657 
Q 1506 409 1894 409 
Q 2359 409 2629 706 
Q 2900 1003 2900 1516 
L 2900 3500 
L 3475 3500 
L 3475 0 
L 2900 0 
L 2900 538 
Q 2691 219 2414 64 
Q 2138 -91 1772 -91 
Q 1169 -91 856 284 
Q 544 659 544 1381 
z
M 1991 3584 
L 1991 3584 
z
" id="DejaVuSans-75" transform="scale(0.015625)"/>
      <path d="M 2034 4250 
Q 1547 4250 1301 3770 
Q 1056 3291 1056 2328 
Q 1056 1369 1301 889 
Q 1547 409 2034 409 
Q 2525 409 2770 889 
Q 3016 1369 3016 2328 
Q 3016 3291 2770 3770 
Q 2525 4250 2034 4250 
z
M 2034 4750 
Q 2819 4750 3233 4129 
Q 3647 3509 3647 2328 
Q 3647 1150 3233 529 
Q 2819 -91 2034 -91 
Q 1250 -91 836 529 
Q 422 1150 422 2328 
Q 422 3509 836 4129 
Q 1250 4750 2034 4750 
z
" id="DejaVuSans-30" transform="scale(0.015625)"/>
     </defs>
     <use transform="translate(0 0.015625)" xlink:href="#DejaVuSans-65"/>
     <use transform="translate(61.523438 0.015625)" xlink:href="#DejaVuSans-78"/>
     <use transform="translate(120.703125 0.015625)" xlink:href="#DejaVuSans-70"/>
     <use transform="translate(184.179688 0.015625)" xlink:href="#DejaVuSans-20"/>
     <use transform="translate(215.966797 0.015625)" xlink:href="#DejaVuSans-6c"/>
     <use transform="translate(243.75 0.015625)" xlink:href="#DejaVuSans-65"/>
     <use transform="translate(305.273438 0.015625)" xlink:href="#DejaVuSans-73"/>
     <use transform="translate(357.373047 0.015625)" xlink:href="#DejaVuSans-73"/>
     <use transform="translate(409.472656 0.015625)" xlink:href="#DejaVuSans-20"/>
     <use transform="translate(441.259766 0.015625)" xlink:href="#DejaVuSans-Oblique-70"/>
     <use transform="translate(504.736328 0.015625)" xlink:href="#DejaVuSans-2d"/>
     <use transform="translate(540.820312 0.015625)" xlink:href="#DejaVuSans-76"/>
     <use transform="translate(600 0.015625)" xlink:href="#DejaVuSans-61"/>
     <use transform="translate(661.279297 0.015625)" xlink:href="#DejaVuSans-6c"/>
     <use transform="translate(689.0625 0.015625)" xlink:href="#DejaVuSans-75"/>
     <use transform="translate(752.441406 0.015625)" xlink:href="#DejaVuSans-65"/>
     <use transform="translate(813.964844 0.015625)" xlink:href="#DejaVuSans-20"/>
     <use transform="translate(845.751953 0.015625)" xlink:href="#DejaVuSans-3d"/>
     <use transform="translate(929.541016 0.015625)" xlink:href="#DejaVuSans-20"/>
     <use transform="translate(961.328125 0.015625)" xlink:href="#DejaVuSans-32"/>
     <use transform="translate(1024.951172 0.015625)" xlink:href="#DejaVuSans-2e"/>
     <use transform="translate(1051.238281 0.015625)" xlink:href="#DejaVuSans-32"/>
     <use transform="translate(1114.861328 0.015625)" xlink:href="#DejaVuSans-35"/>
     <use transform="translate(1178.484375 0.015625)" xlink:href="#DejaVuSans-30"/>
     <use transform="translate(1242.107422 0.015625)" xlink:href="#DejaVuSans-65"/>
     <use transform="translate(1303.630859 0.015625)" xlink:href="#DejaVuSans-2d"/>
     <use transform="translate(1339.714844 0.015625)" xlink:href="#DejaVuSans-32"/>
     <use transform="translate(1403.337891 0.015625)" xlink:href="#DejaVuSans-30"/>
    </g>
   </g>
  </g>
  <g id="axes_2">
   <g id="patch_9">
    <path d="M 41.923677 326.64351 
L 317.234135 326.64351 
L 317.234135 100.262462 
L 41.923677 100.262462 
z
" style="fill:#ffffff;"/>
   </g>
   <g id="patch_10">
    <path clip-path="url(#pda1369a275)" d="M 54.437789 326.64351 
L 63.707502 326.64351 
L 63.707502 197.080469 
L 54.437789 197.080469 
z
" style="fill:#ff7f0e;fill-opacity:0.5;stroke:#000000;stroke-linejoin:miter;stroke-width:0.939394;"/>
   </g>
   <g id="patch_11">
    <path clip-path="url(#pda1369a275)" d="M 63.707502 326.64351 
L 72.977214 326.64351 
L 72.977214 198.09268 
L 63.707502 198.09268 
z
" style="fill:#ff7f0e;fill-opacity:0.5;stroke:#000000;stroke-linejoin:miter;stroke-width:0.939394;"/>
   </g>
   <g id="patch_12">
    <path clip-path="url(#pda1369a275)" d="M 72.977214 326.64351 
L 82.246926 326.64351 
L 82.246926 155.579807 
L 72.977214 155.579807 
z
" style="fill:#ff7f0e;fill-opacity:0.5;stroke:#000000;stroke-linejoin:miter;stroke-width:0.939394;"/>
   </g>
   <g id="patch_13">
    <path clip-path="url(#pda1369a275)" d="M 82.246926 326.64351 
L 91.516639 326.64351 
L 91.516639 111.042512 
L 82.246926 111.042512 
z
" style="fill:#ff7f0e;fill-opacity:0.5;stroke:#000000;stroke-linejoin:miter;stroke-width:0.939394;"/>
   </g>
   <g id="patch_14">
    <path clip-path="url(#pda1369a275)" d="M 91.516639 326.64351 
L 100.786351 326.64351 
L 100.786351 131.286737 
L 91.516639 131.286737 
z
" style="fill:#ff7f0e;fill-opacity:0.5;stroke:#000000;stroke-linejoin:miter;stroke-width:0.939394;"/>
   </g>
   <g id="patch_15">
    <path clip-path="url(#pda1369a275)" d="M 100.786351 326.64351 
L 110.056063 326.64351 
L 110.056063 123.189047 
L 100.786351 123.189047 
z
" style="fill:#ff7f0e;fill-opacity:0.5;stroke:#000000;stroke-linejoin:miter;stroke-width:0.939394;"/>
   </g>
   <g id="patch_16">
    <path clip-path="url(#pda1369a275)" d="M 110.056063 326.64351 
L 119.325776 326.64351 
L 119.325776 154.567596 
L 110.056063 154.567596 
z
" style="fill:#ff7f0e;fill-opacity:0.5;stroke:#000000;stroke-linejoin:miter;stroke-width:0.939394;"/>
   </g>
   <g id="patch_17">
    <path clip-path="url(#pda1369a275)" d="M 119.325776 326.64351 
L 128.595488 326.64351 
L 128.595488 180.885089 
L 119.325776 180.885089 
z
" style="fill:#ff7f0e;fill-opacity:0.5;stroke:#000000;stroke-linejoin:miter;stroke-width:0.939394;"/>
   </g>
   <g id="patch_18">
    <path clip-path="url(#pda1369a275)" d="M 128.595488 326.64351 
L 137.865201 326.64351 
L 137.865201 194.043835 
L 128.595488 194.043835 
z
" style="fill:#ff7f0e;fill-opacity:0.5;stroke:#000000;stroke-linejoin:miter;stroke-width:0.939394;"/>
   </g>
   <g id="patch_19">
    <path clip-path="url(#pda1369a275)" d="M 137.865201 326.64351 
L 147.134913 326.64351 
L 147.134913 168.738554 
L 137.865201 168.738554 
z
" style="fill:#ff7f0e;fill-opacity:0.5;stroke:#000000;stroke-linejoin:miter;stroke-width:0.939394;"/>
   </g>
   <g id="patch_20">
    <path clip-path="url(#pda1369a275)" d="M 147.134913 326.64351 
L 156.404625 326.64351 
L 156.404625 215.300272 
L 147.134913 215.300272 
z
" style="fill:#ff7f0e;fill-opacity:0.5;stroke:#000000;stroke-linejoin:miter;stroke-width:0.939394;"/>
   </g>
   <g id="patch_21">
    <path clip-path="url(#pda1369a275)" d="M 156.404625 326.64351 
L 165.674338 326.64351 
L 165.674338 220.361328 
L 156.404625 220.361328 
z
" style="fill:#ff7f0e;fill-opacity:0.5;stroke:#000000;stroke-linejoin:miter;stroke-width:0.939394;"/>
   </g>
   <g id="patch_22">
    <path clip-path="url(#pda1369a275)" d="M 165.674338 326.64351 
L 174.94405 326.64351 
L 174.94405 207.202581 
L 165.674338 207.202581 
z
" style="fill:#ff7f0e;fill-opacity:0.5;stroke:#000000;stroke-linejoin:miter;stroke-width:0.939394;"/>
   </g>
   <g id="patch_23">
    <path clip-path="url(#pda1369a275)" d="M 174.94405 326.64351 
L 184.213762 326.64351 
L 184.213762 237.568919 
L 174.94405 237.568919 
z
" style="fill:#ff7f0e;fill-opacity:0.5;stroke:#000000;stroke-linejoin:miter;stroke-width:0.939394;"/>
   </g>
   <g id="patch_24">
    <path clip-path="url(#pda1369a275)" d="M 184.213762 326.64351 
L 193.483475 326.64351 
L 193.483475 242.629976 
L 184.213762 242.629976 
z
" style="fill:#ff7f0e;fill-opacity:0.5;stroke:#000000;stroke-linejoin:miter;stroke-width:0.939394;"/>
   </g>
   <g id="patch_25">
    <path clip-path="url(#pda1369a275)" d="M 193.483475 326.64351 
L 202.753187 326.64351 
L 202.753187 255.788722 
L 193.483475 255.788722 
z
" style="fill:#ff7f0e;fill-opacity:0.5;stroke:#000000;stroke-linejoin:miter;stroke-width:0.939394;"/>
   </g>
   <g id="patch_26">
    <path clip-path="url(#pda1369a275)" d="M 202.753187 326.64351 
L 212.0229 326.64351 
L 212.0229 237.568919 
L 202.753187 237.568919 
z
" style="fill:#ff7f0e;fill-opacity:0.5;stroke:#000000;stroke-linejoin:miter;stroke-width:0.939394;"/>
   </g>
   <g id="patch_27">
    <path clip-path="url(#pda1369a275)" d="M 212.0229 326.64351 
L 221.292612 326.64351 
L 221.292612 279.069581 
L 212.0229 279.069581 
z
" style="fill:#ff7f0e;fill-opacity:0.5;stroke:#000000;stroke-linejoin:miter;stroke-width:0.939394;"/>
   </g>
   <g id="patch_28">
    <path clip-path="url(#pda1369a275)" d="M 221.292612 326.64351 
L 230.562324 326.64351 
L 230.562324 298.301595 
L 221.292612 298.301595 
z
" style="fill:#ff7f0e;fill-opacity:0.5;stroke:#000000;stroke-linejoin:miter;stroke-width:0.939394;"/>
   </g>
   <g id="patch_29">
    <path clip-path="url(#pda1369a275)" d="M 230.562324 326.64351 
L 239.832037 326.64351 
L 239.832037 310.44813 
L 230.562324 310.44813 
z
" style="fill:#ff7f0e;fill-opacity:0.5;stroke:#000000;stroke-linejoin:miter;stroke-width:0.939394;"/>
   </g>
   <g id="patch_30">
    <path clip-path="url(#pda1369a275)" d="M 239.832037 326.64351 
L 249.101749 326.64351 
L 249.101749 306.399285 
L 239.832037 306.399285 
z
" style="fill:#ff7f0e;fill-opacity:0.5;stroke:#000000;stroke-linejoin:miter;stroke-width:0.939394;"/>
   </g>
   <g id="patch_31">
    <path clip-path="url(#pda1369a275)" d="M 249.101749 326.64351 
L 258.371461 326.64351 
L 258.371461 315.509186 
L 249.101749 315.509186 
z
" style="fill:#ff7f0e;fill-opacity:0.5;stroke:#000000;stroke-linejoin:miter;stroke-width:0.939394;"/>
   </g>
   <g id="patch_32">
    <path clip-path="url(#pda1369a275)" d="M 258.371461 326.64351 
L 267.641174 326.64351 
L 267.641174 322.594665 
L 258.371461 322.594665 
z
" style="fill:#ff7f0e;fill-opacity:0.5;stroke:#000000;stroke-linejoin:miter;stroke-width:0.939394;"/>
   </g>
   <g id="patch_33">
    <path clip-path="url(#pda1369a275)" d="M 267.641174 326.64351 
L 276.910886 326.64351 
L 276.910886 317.533609 
L 267.641174 317.533609 
z
" style="fill:#ff7f0e;fill-opacity:0.5;stroke:#000000;stroke-linejoin:miter;stroke-width:0.939394;"/>
   </g>
   <g id="patch_34">
    <path clip-path="url(#pda1369a275)" d="M 276.910886 326.64351 
L 286.180599 326.64351 
L 286.180599 326.64351 
L 276.910886 326.64351 
z
" style="fill:#ff7f0e;fill-opacity:0.5;stroke:#000000;stroke-linejoin:miter;stroke-width:0.939394;"/>
   </g>
   <g id="patch_35">
    <path clip-path="url(#pda1369a275)" d="M 286.180599 326.64351 
L 295.450311 326.64351 
L 295.450311 326.64351 
L 286.180599 326.64351 
z
" style="fill:#ff7f0e;fill-opacity:0.5;stroke:#000000;stroke-linejoin:miter;stroke-width:0.939394;"/>
   </g>
   <g id="patch_36">
    <path clip-path="url(#pda1369a275)" d="M 295.450311 326.64351 
L 304.720023 326.64351 
L 304.720023 321.582454 
L 295.450311 321.582454 
z
" style="fill:#ff7f0e;fill-opacity:0.5;stroke:#000000;stroke-linejoin:miter;stroke-width:0.939394;"/>
   </g>
   <g id="matplotlib.axis_3">
    <g id="xtick_11">
     <g id="line2d_15">
      <defs>
       <path d="M 0 0 
L 0 3.5 
" id="m93dd4a5bbe" style="stroke:#000000;stroke-width:0.8;"/>
      </defs>
      <g>
       <use style="stroke:#000000;stroke-width:0.8;" x="237.801945" xlink:href="#m93dd4a5bbe" y="326.64351"/>
      </g>
     </g>
     <g id="text_5">
      <!-- $\mathdefault{10^{3}}$ -->
      <g transform="translate(229.001945 341.241947)scale(0.1 -0.1)">
       <defs>
        <path d="M 794 531 
L 1825 531 
L 1825 4091 
L 703 3866 
L 703 4441 
L 1819 4666 
L 2450 4666 
L 2450 531 
L 3481 531 
L 3481 0 
L 794 0 
L 794 531 
z
" id="DejaVuSans-31" transform="scale(0.015625)"/>
       </defs>
       <use transform="translate(0 0.765625)" xlink:href="#DejaVuSans-31"/>
       <use transform="translate(63.623047 0.765625)" xlink:href="#DejaVuSans-30"/>
       <use transform="translate(128.203125 39.046875)scale(0.7)" xlink:href="#DejaVuSans-33"/>
      </g>
     </g>
    </g>
    <g id="xtick_12">
     <g id="line2d_16">
      <defs>
       <path d="M 0 0 
L 0 2 
" id="m6ce97762a8" style="stroke:#000000;stroke-width:0.6;"/>
      </defs>
      <g>
       <use style="stroke:#000000;stroke-width:0.6;" x="78.959521" xlink:href="#m6ce97762a8" y="326.64351"/>
      </g>
     </g>
    </g>
    <g id="xtick_13">
     <g id="line2d_17">
      <g>
       <use style="stroke:#000000;stroke-width:0.6;" x="118.976635" xlink:href="#m6ce97762a8" y="326.64351"/>
      </g>
     </g>
    </g>
    <g id="xtick_14">
     <g id="line2d_18">
      <g>
       <use style="stroke:#000000;stroke-width:0.6;" x="147.36923" xlink:href="#m6ce97762a8" y="326.64351"/>
      </g>
     </g>
    </g>
    <g id="xtick_15">
     <g id="line2d_19">
      <g>
       <use style="stroke:#000000;stroke-width:0.6;" x="169.392237" xlink:href="#m6ce97762a8" y="326.64351"/>
      </g>
     </g>
    </g>
    <g id="xtick_16">
     <g id="line2d_20">
      <g>
       <use style="stroke:#000000;stroke-width:0.6;" x="187.386344" xlink:href="#m6ce97762a8" y="326.64351"/>
      </g>
     </g>
    </g>
    <g id="xtick_17">
     <g id="line2d_21">
      <g>
       <use style="stroke:#000000;stroke-width:0.6;" x="202.600144" xlink:href="#m6ce97762a8" y="326.64351"/>
      </g>
     </g>
    </g>
    <g id="xtick_18">
     <g id="line2d_22">
      <g>
       <use style="stroke:#000000;stroke-width:0.6;" x="215.778938" xlink:href="#m6ce97762a8" y="326.64351"/>
      </g>
     </g>
    </g>
    <g id="xtick_19">
     <g id="line2d_23">
      <g>
       <use style="stroke:#000000;stroke-width:0.6;" x="227.403458" xlink:href="#m6ce97762a8" y="326.64351"/>
      </g>
     </g>
    </g>
    <g id="xtick_20">
     <g id="line2d_24">
      <g>
       <use style="stroke:#000000;stroke-width:0.6;" x="306.211654" xlink:href="#m6ce97762a8" y="326.64351"/>
      </g>
     </g>
    </g>
    <g id="text_6">
     <!-- length -->
     <g transform="translate(163.641406 354.920073)scale(0.1 -0.1)">
      <defs>
       <path d="M 2906 1791 
Q 2906 2416 2648 2759 
Q 2391 3103 1925 3103 
Q 1463 3103 1205 2759 
Q 947 2416 947 1791 
Q 947 1169 1205 825 
Q 1463 481 1925 481 
Q 2391 481 2648 825 
Q 2906 1169 2906 1791 
z
M 3481 434 
Q 3481 -459 3084 -895 
Q 2688 -1331 1869 -1331 
Q 1566 -1331 1297 -1286 
Q 1028 -1241 775 -1147 
L 775 -588 
Q 1028 -725 1275 -790 
Q 1522 -856 1778 -856 
Q 2344 -856 2625 -561 
Q 2906 -266 2906 331 
L 2906 616 
Q 2728 306 2450 153 
Q 2172 0 1784 0 
Q 1141 0 747 490 
Q 353 981 353 1791 
Q 353 2603 747 3093 
Q 1141 3584 1784 3584 
Q 2172 3584 2450 3431 
Q 2728 3278 2906 2969 
L 2906 3500 
L 3481 3500 
L 3481 434 
z
" id="DejaVuSans-67" transform="scale(0.015625)"/>
       <path d="M 3513 2113 
L 3513 0 
L 2938 0 
L 2938 2094 
Q 2938 2591 2744 2837 
Q 2550 3084 2163 3084 
Q 1697 3084 1428 2787 
Q 1159 2491 1159 1978 
L 1159 0 
L 581 0 
L 581 4863 
L 1159 4863 
L 1159 2956 
Q 1366 3272 1645 3428 
Q 1925 3584 2291 3584 
Q 2894 3584 3203 3211 
Q 3513 2838 3513 2113 
z
" id="DejaVuSans-68" transform="scale(0.015625)"/>
      </defs>
      <use xlink:href="#DejaVuSans-6c"/>
      <use x="27.783203" xlink:href="#DejaVuSans-65"/>
      <use x="89.306641" xlink:href="#DejaVuSans-6e"/>
      <use x="152.685547" xlink:href="#DejaVuSans-67"/>
      <use x="216.162109" xlink:href="#DejaVuSans-74"/>
      <use x="255.371094" xlink:href="#DejaVuSans-68"/>
     </g>
    </g>
   </g>
   <g id="matplotlib.axis_4">
    <g id="ytick_3">
     <g id="line2d_25">
      <defs>
       <path d="M 0 0 
L 3.5 0 
" id="m2b11aa8e31" style="stroke:#000000;stroke-width:0.8;"/>
      </defs>
      <g>
       <use style="stroke:#000000;stroke-width:0.8;" x="317.234135" xlink:href="#m2b11aa8e31" y="326.64351"/>
      </g>
     </g>
     <g id="text_7">
      <!-- 0 -->
      <g transform="translate(324.234135 330.442729)scale(0.1 -0.1)">
       <use xlink:href="#DejaVuSans-30"/>
      </g>
     </g>
    </g>
    <g id="ytick_4">
     <g id="line2d_26">
      <g>
       <use style="stroke:#000000;stroke-width:0.8;" x="317.234135" xlink:href="#m2b11aa8e31" y="301.338229"/>
      </g>
     </g>
     <g id="text_8">
      <!-- 25 -->
      <g transform="translate(324.234135 305.137447)scale(0.1 -0.1)">
       <use xlink:href="#DejaVuSans-32"/>
       <use x="63.623047" xlink:href="#DejaVuSans-35"/>
      </g>
     </g>
    </g>
    <g id="ytick_5">
     <g id="line2d_27">
      <g>
       <use style="stroke:#000000;stroke-width:0.8;" x="317.234135" xlink:href="#m2b11aa8e31" y="276.032947"/>
      </g>
     </g>
     <g id="text_9">
      <!-- 50 -->
      <g transform="translate(324.234135 279.832166)scale(0.1 -0.1)">
       <use xlink:href="#DejaVuSans-35"/>
       <use x="63.623047" xlink:href="#DejaVuSans-30"/>
      </g>
     </g>
    </g>
    <g id="ytick_6">
     <g id="line2d_28">
      <g>
       <use style="stroke:#000000;stroke-width:0.8;" x="317.234135" xlink:href="#m2b11aa8e31" y="250.727666"/>
      </g>
     </g>
     <g id="text_10">
      <!-- 75 -->
      <g transform="translate(324.234135 254.526884)scale(0.1 -0.1)">
       <use xlink:href="#DejaVuSans-37"/>
       <use x="63.623047" xlink:href="#DejaVuSans-35"/>
      </g>
     </g>
    </g>
    <g id="ytick_7">
     <g id="line2d_29">
      <g>
       <use style="stroke:#000000;stroke-width:0.8;" x="317.234135" xlink:href="#m2b11aa8e31" y="225.422384"/>
      </g>
     </g>
     <g id="text_11">
      <!-- 100 -->
      <g transform="translate(324.234135 229.221603)scale(0.1 -0.1)">
       <use xlink:href="#DejaVuSans-31"/>
       <use x="63.623047" xlink:href="#DejaVuSans-30"/>
       <use x="127.246094" xlink:href="#DejaVuSans-30"/>
      </g>
     </g>
    </g>
    <g id="ytick_8">
     <g id="line2d_30">
      <g>
       <use style="stroke:#000000;stroke-width:0.8;" x="317.234135" xlink:href="#m2b11aa8e31" y="200.117103"/>
      </g>
     </g>
     <g id="text_12">
      <!-- 125 -->
      <g transform="translate(324.234135 203.916321)scale(0.1 -0.1)">
       <use xlink:href="#DejaVuSans-31"/>
       <use x="63.623047" xlink:href="#DejaVuSans-32"/>
       <use x="127.246094" xlink:href="#DejaVuSans-35"/>
      </g>
     </g>
    </g>
    <g id="ytick_9">
     <g id="line2d_31">
      <g>
       <use style="stroke:#000000;stroke-width:0.8;" x="317.234135" xlink:href="#m2b11aa8e31" y="174.811821"/>
      </g>
     </g>
     <g id="text_13">
      <!-- 150 -->
      <g transform="translate(324.234135 178.61104)scale(0.1 -0.1)">
       <use xlink:href="#DejaVuSans-31"/>
       <use x="63.623047" xlink:href="#DejaVuSans-35"/>
       <use x="127.246094" xlink:href="#DejaVuSans-30"/>
      </g>
     </g>
    </g>
    <g id="ytick_10">
     <g id="line2d_32">
      <g>
       <use style="stroke:#000000;stroke-width:0.8;" x="317.234135" xlink:href="#m2b11aa8e31" y="149.50654"/>
      </g>
     </g>
     <g id="text_14">
      <!-- 175 -->
      <g transform="translate(324.234135 153.305758)scale(0.1 -0.1)">
       <use xlink:href="#DejaVuSans-31"/>
       <use x="63.623047" xlink:href="#DejaVuSans-37"/>
       <use x="127.246094" xlink:href="#DejaVuSans-35"/>
      </g>
     </g>
    </g>
    <g id="ytick_11">
     <g id="line2d_33">
      <g>
       <use style="stroke:#000000;stroke-width:0.8;" x="317.234135" xlink:href="#m2b11aa8e31" y="124.201258"/>
      </g>
     </g>
     <g id="text_15">
      <!-- 200 -->
      <g transform="translate(324.234135 128.000477)scale(0.1 -0.1)">
       <use xlink:href="#DejaVuSans-32"/>
       <use x="63.623047" xlink:href="#DejaVuSans-30"/>
       <use x="127.246094" xlink:href="#DejaVuSans-30"/>
      </g>
     </g>
    </g>
    <g id="text_16">
     <!-- Count Ctr -->
     <g transform="translate(354.920073 237.397517)rotate(-90)scale(0.1 -0.1)">
      <defs>
       <path d="M 4122 4306 
L 4122 3641 
Q 3803 3938 3442 4084 
Q 3081 4231 2675 4231 
Q 1875 4231 1450 3742 
Q 1025 3253 1025 2328 
Q 1025 1406 1450 917 
Q 1875 428 2675 428 
Q 3081 428 3442 575 
Q 3803 722 4122 1019 
L 4122 359 
Q 3791 134 3420 21 
Q 3050 -91 2638 -91 
Q 1578 -91 968 557 
Q 359 1206 359 2328 
Q 359 3453 968 4101 
Q 1578 4750 2638 4750 
Q 3056 4750 3426 4639 
Q 3797 4528 4122 4306 
z
" id="DejaVuSans-43" transform="scale(0.015625)"/>
       <path d="M 1959 3097 
Q 1497 3097 1228 2736 
Q 959 2375 959 1747 
Q 959 1119 1226 758 
Q 1494 397 1959 397 
Q 2419 397 2687 759 
Q 2956 1122 2956 1747 
Q 2956 2369 2687 2733 
Q 2419 3097 1959 3097 
z
M 1959 3584 
Q 2709 3584 3137 3096 
Q 3566 2609 3566 1747 
Q 3566 888 3137 398 
Q 2709 -91 1959 -91 
Q 1206 -91 779 398 
Q 353 888 353 1747 
Q 353 2609 779 3096 
Q 1206 3584 1959 3584 
z
" id="DejaVuSans-6f" transform="scale(0.015625)"/>
      </defs>
      <use xlink:href="#DejaVuSans-43"/>
      <use x="69.824219" xlink:href="#DejaVuSans-6f"/>
      <use x="131.005859" xlink:href="#DejaVuSans-75"/>
      <use x="194.384766" xlink:href="#DejaVuSans-6e"/>
      <use x="257.763672" xlink:href="#DejaVuSans-74"/>
      <use x="296.972656" xlink:href="#DejaVuSans-20"/>
      <use x="328.759766" xlink:href="#DejaVuSans-43"/>
      <use x="398.583984" xlink:href="#DejaVuSans-74"/>
      <use x="437.792969" xlink:href="#DejaVuSans-72"/>
     </g>
    </g>
   </g>
   <g id="line2d_34">
    <path clip-path="url(#pda1369a275)" d="M 54.437789 260.653309 
L 60.726288 227.095995 
L 63.241687 214.591832 
L 65.757086 202.917054 
L 68.272486 192.053454 
L 70.787885 181.916896 
L 73.303284 172.445109 
L 75.818684 163.655144 
L 78.334083 155.652046 
L 80.849482 148.592307 
L 83.364882 142.623968 
L 84.622581 140.079217 
L 85.880281 137.832731 
L 87.137981 135.881519 
L 88.39568 134.217814 
L 89.65338 132.830337 
L 90.91108 131.705867 
L 92.168779 130.830923 
L 93.426479 130.19334 
L 94.684179 129.783559 
L 95.941878 129.595488 
L 97.199578 129.626829 
L 98.457278 129.878871 
L 99.714977 130.35577 
L 100.972677 131.063412 
L 102.230377 132.008004 
L 103.488076 133.194521 
L 104.745776 134.625201 
L 106.003476 136.298193 
L 107.261175 138.206506 
L 109.776575 142.671727 
L 112.291974 147.846436 
L 116.065073 156.35821 
L 119.838172 164.824056 
L 122.353571 169.944082 
L 124.868971 174.388495 
L 127.38437 178.051393 
L 128.64207 179.589169 
L 131.157469 182.141736 
L 133.672868 184.159525 
L 139.961367 188.617481 
L 142.476766 190.832103 
L 144.992165 193.501804 
L 147.507565 196.589706 
L 156.311462 208.032723 
L 158.826862 210.727608 
L 161.342261 213.076202 
L 170.146159 220.697135 
L 172.661558 223.322326 
L 175.176957 226.232089 
L 185.238555 238.490563 
L 187.753954 241.068424 
L 190.269353 243.301483 
L 192.784753 245.207117 
L 196.557852 247.648195 
L 200.330951 250.086882 
L 202.84635 252.069841 
L 204.10405 253.249393 
L 205.361749 254.583708 
L 206.619449 256.088432 
L 209.134848 259.638671 
L 211.650248 263.886368 
L 214.165647 268.705583 
L 219.196446 279.169743 
L 222.969545 286.770551 
L 225.484944 291.350456 
L 228.000343 295.413285 
L 230.515743 298.922885 
L 233.031142 301.894675 
L 235.546542 304.381742 
L 238.061941 306.462752 
L 240.57734 308.230845 
L 244.350439 310.501726 
L 249.381238 313.186325 
L 254.412037 315.636075 
L 258.185136 317.226275 
L 261.958235 318.542533 
L 266.989033 319.990853 
L 274.535231 322.131772 
L 280.82373 323.934328 
L 284.596829 324.751319 
L 287.112228 325.104978 
L 289.627627 325.292092 
L 293.400726 325.297688 
L 304.720023 324.78772 
L 304.720023 324.78772 
" style="fill:none;stroke:#ff7f0e;stroke-linecap:square;stroke-width:1.5;"/>
   </g>
   <g id="patch_37">
    <path d="M 41.923677 326.64351 
L 41.923677 100.262462 
" style="fill:none;stroke:#000000;stroke-linecap:square;stroke-linejoin:miter;stroke-width:0.8;"/>
   </g>
   <g id="patch_38">
    <path d="M 317.234135 326.64351 
L 317.234135 100.262462 
" style="fill:none;stroke:#000000;stroke-linecap:square;stroke-linejoin:miter;stroke-width:0.8;"/>
   </g>
   <g id="patch_39">
    <path d="M 41.923678 326.64351 
L 317.234135 326.64351 
" style="fill:none;stroke:#000000;stroke-linecap:square;stroke-linejoin:miter;stroke-width:0.8;"/>
   </g>
   <g id="patch_40">
    <path d="M 41.923678 100.262462 
L 317.234135 100.262462 
" style="fill:none;stroke:#000000;stroke-linecap:square;stroke-linejoin:miter;stroke-width:0.8;"/>
   </g>
   <g id="legend_1">
    <g id="patch_41">
     <path d="M 187.177885 160.014337 
L 310.234135 160.014337 
Q 312.234135 160.014337 312.234135 158.014337 
L 312.234135 107.262462 
Q 312.234135 105.262462 310.234135 105.262462 
L 187.177885 105.262462 
Q 185.177885 105.262462 185.177885 107.262462 
L 185.177885 158.014337 
Q 185.177885 160.014337 187.177885 160.014337 
z
" style="fill:#ffffff;opacity:0.8;stroke:#cccccc;stroke-linejoin:miter;"/>
    </g>
    <g id="patch_42">
     <path d="M 189.177885 123.49965 
L 209.177885 123.49965 
L 209.177885 116.49965 
L 189.177885 116.49965 
z
" style="fill:#1f77b4;stroke:#000000;stroke-linejoin:miter;"/>
    </g>
    <g id="text_17">
     <!-- Exp mean 273.9 -->
     <g transform="translate(217.177885 116.8609)scale(0.1 -0.1)">
      <defs>
       <path d="M 628 4666 
L 3578 4666 
L 3578 4134 
L 1259 4134 
L 1259 2753 
L 3481 2753 
L 3481 2222 
L 1259 2222 
L 1259 531 
L 3634 531 
L 3634 0 
L 628 0 
L 628 4666 
z
" id="DejaVuSans-45" transform="scale(0.015625)"/>
       <path d="M 3328 2828 
Q 3544 3216 3844 3400 
Q 4144 3584 4550 3584 
Q 5097 3584 5394 3201 
Q 5691 2819 5691 2113 
L 5691 0 
L 5113 0 
L 5113 2094 
Q 5113 2597 4934 2840 
Q 4756 3084 4391 3084 
Q 3944 3084 3684 2787 
Q 3425 2491 3425 1978 
L 3425 0 
L 2847 0 
L 2847 2094 
Q 2847 2600 2669 2842 
Q 2491 3084 2119 3084 
Q 1678 3084 1418 2786 
Q 1159 2488 1159 1978 
L 1159 0 
L 581 0 
L 581 3500 
L 1159 3500 
L 1159 2956 
Q 1356 3278 1631 3431 
Q 1906 3584 2284 3584 
Q 2666 3584 2933 3390 
Q 3200 3197 3328 2828 
z
" id="DejaVuSans-6d" transform="scale(0.015625)"/>
       <path d="M 703 97 
L 703 672 
Q 941 559 1184 500 
Q 1428 441 1663 441 
Q 2288 441 2617 861 
Q 2947 1281 2994 2138 
Q 2813 1869 2534 1725 
Q 2256 1581 1919 1581 
Q 1219 1581 811 2004 
Q 403 2428 403 3163 
Q 403 3881 828 4315 
Q 1253 4750 1959 4750 
Q 2769 4750 3195 4129 
Q 3622 3509 3622 2328 
Q 3622 1225 3098 567 
Q 2575 -91 1691 -91 
Q 1453 -91 1209 -44 
Q 966 3 703 97 
z
M 1959 2075 
Q 2384 2075 2632 2365 
Q 2881 2656 2881 3163 
Q 2881 3666 2632 3958 
Q 2384 4250 1959 4250 
Q 1534 4250 1286 3958 
Q 1038 3666 1038 3163 
Q 1038 2656 1286 2365 
Q 1534 2075 1959 2075 
z
" id="DejaVuSans-39" transform="scale(0.015625)"/>
      </defs>
      <use xlink:href="#DejaVuSans-45"/>
      <use x="63.183594" xlink:href="#DejaVuSans-78"/>
      <use x="122.363281" xlink:href="#DejaVuSans-70"/>
      <use x="185.839844" xlink:href="#DejaVuSans-20"/>
      <use x="217.626953" xlink:href="#DejaVuSans-6d"/>
      <use x="315.039062" xlink:href="#DejaVuSans-65"/>
      <use x="376.5625" xlink:href="#DejaVuSans-61"/>
      <use x="437.841797" xlink:href="#DejaVuSans-6e"/>
      <use x="501.220703" xlink:href="#DejaVuSans-20"/>
      <use x="533.007812" xlink:href="#DejaVuSans-32"/>
      <use x="596.630859" xlink:href="#DejaVuSans-37"/>
      <use x="660.253906" xlink:href="#DejaVuSans-33"/>
      <use x="723.876953" xlink:href="#DejaVuSans-2e"/>
      <use x="755.664062" xlink:href="#DejaVuSans-39"/>
     </g>
     <!-- Exp median 257.0 -->
     <g transform="translate(217.177885 128.058712)scale(0.1 -0.1)">
      <defs>
       <path d="M 603 3500 
L 1178 3500 
L 1178 0 
L 603 0 
L 603 3500 
z
M 603 4863 
L 1178 4863 
L 1178 4134 
L 603 4134 
L 603 4863 
z
" id="DejaVuSans-69" transform="scale(0.015625)"/>
      </defs>
      <use xlink:href="#DejaVuSans-45"/>
      <use x="63.183594" xlink:href="#DejaVuSans-78"/>
      <use x="122.363281" xlink:href="#DejaVuSans-70"/>
      <use x="185.839844" xlink:href="#DejaVuSans-20"/>
      <use x="217.626953" xlink:href="#DejaVuSans-6d"/>
      <use x="315.039062" xlink:href="#DejaVuSans-65"/>
      <use x="376.5625" xlink:href="#DejaVuSans-64"/>
      <use x="440.039062" xlink:href="#DejaVuSans-69"/>
      <use x="467.822266" xlink:href="#DejaVuSans-61"/>
      <use x="529.101562" xlink:href="#DejaVuSans-6e"/>
      <use x="592.480469" xlink:href="#DejaVuSans-20"/>
      <use x="624.267578" xlink:href="#DejaVuSans-32"/>
      <use x="687.890625" xlink:href="#DejaVuSans-35"/>
      <use x="751.513672" xlink:href="#DejaVuSans-37"/>
      <use x="815.136719" xlink:href="#DejaVuSans-2e"/>
      <use x="846.923828" xlink:href="#DejaVuSans-30"/>
     </g>
    </g>
    <g id="patch_43">
     <path d="M 189.177885 149.375587 
L 209.177885 149.375587 
L 209.177885 142.375587 
L 189.177885 142.375587 
z
" style="fill:#ff7f0e;stroke:#000000;stroke-linejoin:miter;"/>
    </g>
    <g id="text_18">
     <!-- Ctr mean 380.0 -->
     <g transform="translate(217.177885 142.736837)scale(0.1 -0.1)">
      <use xlink:href="#DejaVuSans-43"/>
      <use x="69.824219" xlink:href="#DejaVuSans-74"/>
      <use x="109.033203" xlink:href="#DejaVuSans-72"/>
      <use x="150.146484" xlink:href="#DejaVuSans-20"/>
      <use x="181.933594" xlink:href="#DejaVuSans-6d"/>
      <use x="279.345703" xlink:href="#DejaVuSans-65"/>
      <use x="340.869141" xlink:href="#DejaVuSans-61"/>
      <use x="402.148438" xlink:href="#DejaVuSans-6e"/>
      <use x="465.527344" xlink:href="#DejaVuSans-20"/>
      <use x="497.314453" xlink:href="#DejaVuSans-33"/>
      <use x="560.9375" xlink:href="#DejaVuSans-38"/>
      <use x="624.560547" xlink:href="#DejaVuSans-30"/>
      <use x="688.183594" xlink:href="#DejaVuSans-2e"/>
      <use x="719.970703" xlink:href="#DejaVuSans-30"/>
     </g>
     <!-- Ctr median 305.0 -->
     <g transform="translate(217.177885 153.93465)scale(0.1 -0.1)">
      <use xlink:href="#DejaVuSans-43"/>
      <use x="69.824219" xlink:href="#DejaVuSans-74"/>
      <use x="109.033203" xlink:href="#DejaVuSans-72"/>
      <use x="150.146484" xlink:href="#DejaVuSans-20"/>
      <use x="181.933594" xlink:href="#DejaVuSans-6d"/>
      <use x="279.345703" xlink:href="#DejaVuSans-65"/>
      <use x="340.869141" xlink:href="#DejaVuSans-64"/>
      <use x="404.345703" xlink:href="#DejaVuSans-69"/>
      <use x="432.128906" xlink:href="#DejaVuSans-61"/>
      <use x="493.408203" xlink:href="#DejaVuSans-6e"/>
      <use x="556.787109" xlink:href="#DejaVuSans-20"/>
      <use x="588.574219" xlink:href="#DejaVuSans-33"/>
      <use x="652.197266" xlink:href="#DejaVuSans-30"/>
      <use x="715.820312" xlink:href="#DejaVuSans-35"/>
      <use x="779.443359" xlink:href="#DejaVuSans-2e"/>
      <use x="811.230469" xlink:href="#DejaVuSans-30"/>
     </g>
    </g>
   </g>
  </g>
  <g id="axes_3">
   <g id="patch_44">
    <path clip-path="url(#pda1369a275)" d="M 54.437789 326.64351 
L 63.707502 326.64351 
L 63.707502 207.292957 
L 54.437789 207.292957 
z
" style="fill:#1f77b4;fill-opacity:0.5;stroke:#000000;stroke-linejoin:miter;stroke-width:0.939394;"/>
   </g>
   <g id="patch_45">
    <path clip-path="url(#pda1369a275)" d="M 63.707502 326.64351 
L 72.977214 326.64351 
L 72.977214 176.492815 
L 63.707502 176.492815 
z
" style="fill:#1f77b4;fill-opacity:0.5;stroke:#000000;stroke-linejoin:miter;stroke-width:0.939394;"/>
   </g>
   <g id="patch_46">
    <path clip-path="url(#pda1369a275)" d="M 72.977214 326.64351 
L 82.246926 326.64351 
L 82.246926 141.842654 
L 72.977214 141.842654 
z
" style="fill:#1f77b4;fill-opacity:0.5;stroke:#000000;stroke-linejoin:miter;stroke-width:0.939394;"/>
   </g>
   <g id="patch_47">
    <path clip-path="url(#pda1369a275)" d="M 82.246926 326.64351 
L 91.516639 326.64351 
L 91.516639 111.042512 
L 82.246926 111.042512 
z
" style="fill:#1f77b4;fill-opacity:0.5;stroke:#000000;stroke-linejoin:miter;stroke-width:0.939394;"/>
   </g>
   <g id="patch_48">
    <path clip-path="url(#pda1369a275)" d="M 91.516639 326.64351 
L 100.786351 326.64351 
L 100.786351 145.692672 
L 91.516639 145.692672 
z
" style="fill:#1f77b4;fill-opacity:0.5;stroke:#000000;stroke-linejoin:miter;stroke-width:0.939394;"/>
   </g>
   <g id="patch_49">
    <path clip-path="url(#pda1369a275)" d="M 100.786351 326.64351 
L 110.056063 326.64351 
L 110.056063 111.042512 
L 100.786351 111.042512 
z
" style="fill:#1f77b4;fill-opacity:0.5;stroke:#000000;stroke-linejoin:miter;stroke-width:0.939394;"/>
   </g>
   <g id="patch_50">
    <path clip-path="url(#pda1369a275)" d="M 110.056063 326.64351 
L 119.325776 326.64351 
L 119.325776 118.742548 
L 110.056063 118.742548 
z
" style="fill:#1f77b4;fill-opacity:0.5;stroke:#000000;stroke-linejoin:miter;stroke-width:0.939394;"/>
   </g>
   <g id="patch_51">
    <path clip-path="url(#pda1369a275)" d="M 119.325776 326.64351 
L 128.595488 326.64351 
L 128.595488 211.142975 
L 119.325776 211.142975 
z
" style="fill:#1f77b4;fill-opacity:0.5;stroke:#000000;stroke-linejoin:miter;stroke-width:0.939394;"/>
   </g>
   <g id="patch_52">
    <path clip-path="url(#pda1369a275)" d="M 128.595488 326.64351 
L 137.865201 326.64351 
L 137.865201 172.642797 
L 128.595488 172.642797 
z
" style="fill:#1f77b4;fill-opacity:0.5;stroke:#000000;stroke-linejoin:miter;stroke-width:0.939394;"/>
   </g>
   <g id="patch_53">
    <path clip-path="url(#pda1369a275)" d="M 137.865201 326.64351 
L 147.134913 326.64351 
L 147.134913 184.192851 
L 137.865201 184.192851 
z
" style="fill:#1f77b4;fill-opacity:0.5;stroke:#000000;stroke-linejoin:miter;stroke-width:0.939394;"/>
   </g>
   <g id="patch_54">
    <path clip-path="url(#pda1369a275)" d="M 147.134913 326.64351 
L 156.404625 326.64351 
L 156.404625 218.843011 
L 147.134913 218.843011 
z
" style="fill:#1f77b4;fill-opacity:0.5;stroke:#000000;stroke-linejoin:miter;stroke-width:0.939394;"/>
   </g>
   <g id="patch_55">
    <path clip-path="url(#pda1369a275)" d="M 156.404625 326.64351 
L 165.674338 326.64351 
L 165.674338 280.443296 
L 156.404625 280.443296 
z
" style="fill:#1f77b4;fill-opacity:0.5;stroke:#000000;stroke-linejoin:miter;stroke-width:0.939394;"/>
   </g>
   <g id="patch_56">
    <path clip-path="url(#pda1369a275)" d="M 165.674338 326.64351 
L 174.94405 326.64351 
L 174.94405 299.693385 
L 165.674338 299.693385 
z
" style="fill:#1f77b4;fill-opacity:0.5;stroke:#000000;stroke-linejoin:miter;stroke-width:0.939394;"/>
   </g>
   <g id="patch_57">
    <path clip-path="url(#pda1369a275)" d="M 174.94405 326.64351 
L 184.213762 326.64351 
L 184.213762 326.64351 
L 174.94405 326.64351 
z
" style="fill:#1f77b4;fill-opacity:0.5;stroke:#000000;stroke-linejoin:miter;stroke-width:0.939394;"/>
   </g>
   <g id="patch_58">
    <path clip-path="url(#pda1369a275)" d="M 184.213762 326.64351 
L 193.483475 326.64351 
L 193.483475 326.64351 
L 184.213762 326.64351 
z
" style="fill:#1f77b4;fill-opacity:0.5;stroke:#000000;stroke-linejoin:miter;stroke-width:0.939394;"/>
   </g>
   <g id="patch_59">
    <path clip-path="url(#pda1369a275)" d="M 193.483475 326.64351 
L 202.753187 326.64351 
L 202.753187 326.64351 
L 193.483475 326.64351 
z
" style="fill:#1f77b4;fill-opacity:0.5;stroke:#000000;stroke-linejoin:miter;stroke-width:0.939394;"/>
   </g>
   <g id="patch_60">
    <path clip-path="url(#pda1369a275)" d="M 202.753187 326.64351 
L 212.0229 326.64351 
L 212.0229 326.64351 
L 202.753187 326.64351 
z
" style="fill:#1f77b4;fill-opacity:0.5;stroke:#000000;stroke-linejoin:miter;stroke-width:0.939394;"/>
   </g>
   <g id="patch_61">
    <path clip-path="url(#pda1369a275)" d="M 212.0229 326.64351 
L 221.292612 326.64351 
L 221.292612 326.64351 
L 212.0229 326.64351 
z
" style="fill:#1f77b4;fill-opacity:0.5;stroke:#000000;stroke-linejoin:miter;stroke-width:0.939394;"/>
   </g>
   <g id="patch_62">
    <path clip-path="url(#pda1369a275)" d="M 221.292612 326.64351 
L 230.562324 326.64351 
L 230.562324 326.64351 
L 221.292612 326.64351 
z
" style="fill:#1f77b4;fill-opacity:0.5;stroke:#000000;stroke-linejoin:miter;stroke-width:0.939394;"/>
   </g>
   <g id="patch_63">
    <path clip-path="url(#pda1369a275)" d="M 230.562324 326.64351 
L 239.832037 326.64351 
L 239.832037 326.64351 
L 230.562324 326.64351 
z
" style="fill:#1f77b4;fill-opacity:0.5;stroke:#000000;stroke-linejoin:miter;stroke-width:0.939394;"/>
   </g>
   <g id="patch_64">
    <path clip-path="url(#pda1369a275)" d="M 239.832037 326.64351 
L 249.101749 326.64351 
L 249.101749 326.64351 
L 239.832037 326.64351 
z
" style="fill:#1f77b4;fill-opacity:0.5;stroke:#000000;stroke-linejoin:miter;stroke-width:0.939394;"/>
   </g>
   <g id="patch_65">
    <path clip-path="url(#pda1369a275)" d="M 249.101749 326.64351 
L 258.371461 326.64351 
L 258.371461 326.64351 
L 249.101749 326.64351 
z
" style="fill:#1f77b4;fill-opacity:0.5;stroke:#000000;stroke-linejoin:miter;stroke-width:0.939394;"/>
   </g>
   <g id="patch_66">
    <path clip-path="url(#pda1369a275)" d="M 258.371461 326.64351 
L 267.641174 326.64351 
L 267.641174 326.64351 
L 258.371461 326.64351 
z
" style="fill:#1f77b4;fill-opacity:0.5;stroke:#000000;stroke-linejoin:miter;stroke-width:0.939394;"/>
   </g>
   <g id="patch_67">
    <path clip-path="url(#pda1369a275)" d="M 267.641174 326.64351 
L 276.910886 326.64351 
L 276.910886 326.64351 
L 267.641174 326.64351 
z
" style="fill:#1f77b4;fill-opacity:0.5;stroke:#000000;stroke-linejoin:miter;stroke-width:0.939394;"/>
   </g>
   <g id="patch_68">
    <path clip-path="url(#pda1369a275)" d="M 276.910886 326.64351 
L 286.180599 326.64351 
L 286.180599 326.64351 
L 276.910886 326.64351 
z
" style="fill:#1f77b4;fill-opacity:0.5;stroke:#000000;stroke-linejoin:miter;stroke-width:0.939394;"/>
   </g>
   <g id="patch_69">
    <path clip-path="url(#pda1369a275)" d="M 286.180599 326.64351 
L 295.450311 326.64351 
L 295.450311 326.64351 
L 286.180599 326.64351 
z
" style="fill:#1f77b4;fill-opacity:0.5;stroke:#000000;stroke-linejoin:miter;stroke-width:0.939394;"/>
   </g>
   <g id="patch_70">
    <path clip-path="url(#pda1369a275)" d="M 295.450311 326.64351 
L 304.720023 326.64351 
L 304.720023 326.64351 
L 295.450311 326.64351 
z
" style="fill:#1f77b4;fill-opacity:0.5;stroke:#000000;stroke-linejoin:miter;stroke-width:0.939394;"/>
   </g>
   <g id="matplotlib.axis_5">
    <g id="ytick_12">
     <g id="line2d_35">
      <g>
       <use style="stroke:#000000;stroke-width:0.8;" x="41.923677" xlink:href="#m4f8802e441" y="326.64351"/>
      </g>
     </g>
     <g id="text_19">
      <!-- 0 -->
      <g transform="translate(28.561177 330.442729)scale(0.1 -0.1)">
       <use xlink:href="#DejaVuSans-30"/>
      </g>
     </g>
    </g>
    <g id="ytick_13">
     <g id="line2d_36">
      <g>
       <use style="stroke:#000000;stroke-width:0.8;" x="41.923677" xlink:href="#m4f8802e441" y="288.143332"/>
      </g>
     </g>
     <g id="text_20">
      <!-- 10 -->
      <g transform="translate(22.198677 291.942551)scale(0.1 -0.1)">
       <use xlink:href="#DejaVuSans-31"/>
       <use x="63.623047" xlink:href="#DejaVuSans-30"/>
      </g>
     </g>
    </g>
    <g id="ytick_14">
     <g id="line2d_37">
      <g>
       <use style="stroke:#000000;stroke-width:0.8;" x="41.923677" xlink:href="#m4f8802e441" y="249.643154"/>
      </g>
     </g>
     <g id="text_21">
      <!-- 20 -->
      <g transform="translate(22.198677 253.442372)scale(0.1 -0.1)">
       <use xlink:href="#DejaVuSans-32"/>
       <use x="63.623047" xlink:href="#DejaVuSans-30"/>
      </g>
     </g>
    </g>
    <g id="ytick_15">
     <g id="line2d_38">
      <g>
       <use style="stroke:#000000;stroke-width:0.8;" x="41.923677" xlink:href="#m4f8802e441" y="211.142975"/>
      </g>
     </g>
     <g id="text_22">
      <!-- 30 -->
      <g transform="translate(22.198677 214.942194)scale(0.1 -0.1)">
       <use xlink:href="#DejaVuSans-33"/>
       <use x="63.623047" xlink:href="#DejaVuSans-30"/>
      </g>
     </g>
    </g>
    <g id="ytick_16">
     <g id="line2d_39">
      <g>
       <use style="stroke:#000000;stroke-width:0.8;" x="41.923677" xlink:href="#m4f8802e441" y="172.642797"/>
      </g>
     </g>
     <g id="text_23">
      <!-- 40 -->
      <g transform="translate(22.198677 176.442016)scale(0.1 -0.1)">
       <use xlink:href="#DejaVuSans-34"/>
       <use x="63.623047" xlink:href="#DejaVuSans-30"/>
      </g>
     </g>
    </g>
    <g id="ytick_17">
     <g id="line2d_40">
      <g>
       <use style="stroke:#000000;stroke-width:0.8;" x="41.923677" xlink:href="#m4f8802e441" y="134.142619"/>
      </g>
     </g>
     <g id="text_24">
      <!-- 50 -->
      <g transform="translate(22.198677 137.941838)scale(0.1 -0.1)">
       <use xlink:href="#DejaVuSans-35"/>
       <use x="63.623047" xlink:href="#DejaVuSans-30"/>
      </g>
     </g>
    </g>
    <g id="text_25">
     <!-- Count Exp -->
     <g transform="translate(16.11899 239.183455)rotate(-90)scale(0.1 -0.1)">
      <use xlink:href="#DejaVuSans-43"/>
      <use x="69.824219" xlink:href="#DejaVuSans-6f"/>
      <use x="131.005859" xlink:href="#DejaVuSans-75"/>
      <use x="194.384766" xlink:href="#DejaVuSans-6e"/>
      <use x="257.763672" xlink:href="#DejaVuSans-74"/>
      <use x="296.972656" xlink:href="#DejaVuSans-20"/>
      <use x="328.759766" xlink:href="#DejaVuSans-45"/>
      <use x="391.943359" xlink:href="#DejaVuSans-78"/>
      <use x="451.123047" xlink:href="#DejaVuSans-70"/>
     </g>
    </g>
   </g>
   <g id="line2d_41">
    <path clip-path="url(#pda1369a275)" d="M 54.437789 263.036699 
L 63.241687 206.532502 
L 65.757086 192.365795 
L 68.272486 179.621607 
L 70.787885 168.346839 
L 73.303284 158.528102 
L 75.818684 150.131656 
L 77.076383 146.456419 
L 78.334083 143.125573 
L 79.591783 140.136734 
L 80.849482 137.487678 
L 82.107182 135.175441 
L 83.364882 133.194989 
L 84.622581 131.537533 
L 85.880281 130.188656 
L 87.137981 129.126525 
L 88.39568 128.320549 
L 89.65338 127.730872 
L 92.168779 127.000163 
L 95.941878 126.191165 
L 98.457278 125.337406 
L 103.488076 123.24312 
L 104.745776 123.078093 
L 106.003476 123.286239 
L 107.261175 123.989787 
L 108.518875 125.295947 
L 109.776575 127.284488 
L 111.034274 129.997037 
L 112.291974 133.429458 
L 113.549674 137.528375 
L 116.065073 147.27866 
L 121.095872 168.182789 
L 122.353571 172.639753 
L 123.611271 176.507745 
L 124.868971 179.71694 
L 126.12667 182.245885 
L 127.38437 184.120063 
L 128.64207 185.406733 
L 129.899769 186.206888 
L 131.157469 186.645406 
L 136.188268 187.540279 
L 137.445967 188.179392 
L 138.703667 189.178392 
L 139.961367 190.596371 
L 141.219066 192.470562 
L 142.476766 194.818289 
L 143.734466 197.639632 
L 144.992165 200.92034 
L 146.249865 204.634621 
L 148.765264 213.21739 
L 151.280664 223.035412 
L 155.053763 239.1805 
L 162.599961 272.061514 
L 166.37306 287.152165 
L 168.888459 296.267199 
L 171.403858 304.341501 
L 172.661558 307.910922 
L 173.919258 311.135613 
L 175.176957 314.000677 
L 176.434657 316.501175 
L 177.692357 318.64276 
L 178.950056 320.441238 
L 180.207756 321.921183 
L 181.465456 323.113859 
L 182.723155 324.05477 
L 183.980855 324.781169 
L 185.238555 325.329805 
L 187.753954 326.027939 
L 190.269353 326.377698 
L 194.042452 326.579007 
L 201.58865 326.641374 
L 304.720023 326.64351 
L 304.720023 326.64351 
" style="fill:none;stroke:#1f77b4;stroke-linecap:square;stroke-width:1.5;"/>
   </g>
   <g id="patch_71">
    <path d="M 41.923677 326.64351 
L 41.923677 100.262462 
" style="fill:none;stroke:#000000;stroke-linecap:square;stroke-linejoin:miter;stroke-width:0.8;"/>
   </g>
   <g id="patch_72">
    <path d="M 317.234135 326.64351 
L 317.234135 100.262462 
" style="fill:none;stroke:#000000;stroke-linecap:square;stroke-linejoin:miter;stroke-width:0.8;"/>
   </g>
   <g id="patch_73">
    <path d="M 41.923678 326.64351 
L 317.234135 326.64351 
" style="fill:none;stroke:#000000;stroke-linecap:square;stroke-linejoin:miter;stroke-width:0.8;"/>
   </g>
   <g id="patch_74">
    <path d="M 41.923678 100.262462 
L 317.234135 100.262462 
" style="fill:none;stroke:#000000;stroke-linecap:square;stroke-linejoin:miter;stroke-width:0.8;"/>
   </g>
  </g>
  <g id="text_26">
   <!-- 48hPeaks_length distribution_6521cc -->
   <g transform="translate(68.101875 12.118365)scale(0.12 -0.12)">
    <defs>
     <path d="M 1259 4147 
L 1259 2394 
L 2053 2394 
Q 2494 2394 2734 2622 
Q 2975 2850 2975 3272 
Q 2975 3691 2734 3919 
Q 2494 4147 2053 4147 
L 1259 4147 
z
M 628 4666 
L 2053 4666 
Q 2838 4666 3239 4311 
Q 3641 3956 3641 3272 
Q 3641 2581 3239 2228 
Q 2838 1875 2053 1875 
L 1259 1875 
L 1259 0 
L 628 0 
L 628 4666 
z
" id="DejaVuSans-50" transform="scale(0.015625)"/>
     <path d="M 581 4863 
L 1159 4863 
L 1159 1991 
L 2875 3500 
L 3609 3500 
L 1753 1863 
L 3688 0 
L 2938 0 
L 1159 1709 
L 1159 0 
L 581 0 
L 581 4863 
z
" id="DejaVuSans-6b" transform="scale(0.015625)"/>
     <path d="M 3263 -1063 
L 3263 -1509 
L -63 -1509 
L -63 -1063 
L 3263 -1063 
z
" id="DejaVuSans-5f" transform="scale(0.015625)"/>
     <path d="M 3116 1747 
Q 3116 2381 2855 2742 
Q 2594 3103 2138 3103 
Q 1681 3103 1420 2742 
Q 1159 2381 1159 1747 
Q 1159 1113 1420 752 
Q 1681 391 2138 391 
Q 2594 391 2855 752 
Q 3116 1113 3116 1747 
z
M 1159 2969 
Q 1341 3281 1617 3432 
Q 1894 3584 2278 3584 
Q 2916 3584 3314 3078 
Q 3713 2572 3713 1747 
Q 3713 922 3314 415 
Q 2916 -91 2278 -91 
Q 1894 -91 1617 61 
Q 1341 213 1159 525 
L 1159 0 
L 581 0 
L 581 4863 
L 1159 4863 
L 1159 2969 
z
" id="DejaVuSans-62" transform="scale(0.015625)"/>
    </defs>
    <use xlink:href="#DejaVuSans-34"/>
    <use x="63.623047" xlink:href="#DejaVuSans-38"/>
    <use x="127.246094" xlink:href="#DejaVuSans-68"/>
    <use x="190.625" xlink:href="#DejaVuSans-50"/>
    <use x="247.302734" xlink:href="#DejaVuSans-65"/>
    <use x="308.826172" xlink:href="#DejaVuSans-61"/>
    <use x="370.105469" xlink:href="#DejaVuSans-6b"/>
    <use x="428.015625" xlink:href="#DejaVuSans-73"/>
    <use x="480.115234" xlink:href="#DejaVuSans-5f"/>
    <use x="530.115234" xlink:href="#DejaVuSans-6c"/>
    <use x="557.898438" xlink:href="#DejaVuSans-65"/>
    <use x="619.421875" xlink:href="#DejaVuSans-6e"/>
    <use x="682.800781" xlink:href="#DejaVuSans-67"/>
    <use x="746.277344" xlink:href="#DejaVuSans-74"/>
    <use x="785.486328" xlink:href="#DejaVuSans-68"/>
    <use x="848.865234" xlink:href="#DejaVuSans-20"/>
    <use x="880.652344" xlink:href="#DejaVuSans-64"/>
    <use x="944.128906" xlink:href="#DejaVuSans-69"/>
    <use x="971.912109" xlink:href="#DejaVuSans-73"/>
    <use x="1024.011719" xlink:href="#DejaVuSans-74"/>
    <use x="1063.220703" xlink:href="#DejaVuSans-72"/>
    <use x="1104.333984" xlink:href="#DejaVuSans-69"/>
    <use x="1132.117188" xlink:href="#DejaVuSans-62"/>
    <use x="1195.59375" xlink:href="#DejaVuSans-75"/>
    <use x="1258.972656" xlink:href="#DejaVuSans-74"/>
    <use x="1298.181641" xlink:href="#DejaVuSans-69"/>
    <use x="1325.964844" xlink:href="#DejaVuSans-6f"/>
    <use x="1387.146484" xlink:href="#DejaVuSans-6e"/>
    <use x="1450.525391" xlink:href="#DejaVuSans-5f"/>
    <use x="1500.525391" xlink:href="#DejaVuSans-36"/>
    <use x="1564.148438" xlink:href="#DejaVuSans-35"/>
    <use x="1627.771484" xlink:href="#DejaVuSans-32"/>
    <use x="1691.394531" xlink:href="#DejaVuSans-31"/>
    <use x="1755.017578" xlink:href="#DejaVuSans-63"/>
    <use x="1809.998047" xlink:href="#DejaVuSans-63"/>
   </g>
  </g>
 </g>
 <defs>
  <clipPath id="pcc3461f5fd">
   <rect height="56.595262" width="275.310458" x="41.923677" y="37.66672"/>
  </clipPath>
  <clipPath id="pda1369a275">
   <rect height="226.381048" width="275.310458" x="41.923677" y="100.262462"/>
  </clipPath>
 </defs>
</svg>
